<svg width="100%" height="100%" viewBox="0 0 1502 1050" fill="none" xmlns="http://www.w3.org/2000/svg"><path d="M1574.75 0.250153V174.75L1400.25 174.75V0.250137L1574.75 0.250153ZM1400.25 175.25L1574.75 175.25V349.75H1400.25V175.25ZM1399.75 0.250137V174.75H1225.25V0.250122L1399.75 0.250137ZM1225.25 175.25H1399.75V349.75L1225.25 349.75V175.25ZM1224.75 0.250122V174.75L1050.25 174.75V0.250107L1224.75 0.250122ZM1050.25 175.25L1224.75 175.25V349.75H1050.25V175.25ZM1049.75 0.250107V174.75H875.25V0.250092L1049.75 0.250107ZM875.25 175.25H1049.75V349.75H875.25V175.25ZM874.75 0.250092V174.75L700.25 174.75V0.250076L874.75 0.250092ZM700.25 175.25L874.75 175.25V349.75L700.25 349.75V175.25ZM699.75 0.250076V174.75H525.25V0.250061L699.75 0.250076ZM525.25 175.25H699.75V349.75H525.25V175.25ZM524.75 0.250061V174.75L350.25 174.75V0.250046L524.75 0.250061ZM350.25 175.25L524.75 175.25V349.75H350.25V175.25ZM349.75 0.250046V174.75H175.25L175.25 0.250031L349.75 0.250046ZM175.25 175.25H349.75V349.75H175.25V175.25ZM174.75 0.250031L174.75 174.75L0.250046 174.75V0.250015L174.75 0.250031ZM0.250046 175.25L174.75 175.25V349.75L0.250031 349.75L0.250046 175.25ZM0.250031 350.25L174.75 350.25V524.75L0.250031 524.75V350.25ZM0.250031 525.25L174.75 525.25V699.75L0.250015 699.75L0.250031 525.25ZM0.250015 700.25L174.75 700.25L174.75 874.75H0.250015V700.25ZM0.250015 875.25H174.75V1049.75H0.25L0.250015 875.25ZM175.25 1049.75V875.25H349.75V1049.75H175.25ZM350.25 1049.75V875.25H524.75V1049.75H350.25ZM525.25 1049.75V875.25H699.75V1049.75H525.25ZM700.25 1049.75V875.25L874.75 875.25V1049.75L700.25 1049.75ZM875.25 1049.75V875.25H1049.75V1049.75H875.25ZM1050.25 1049.75V875.25H1224.75V1049.75H1050.25ZM1225.25 1049.75V875.25H1399.75V1049.75H1225.25ZM1574.75 1049.75H1400.25V875.25H1574.75V1049.75ZM1574.75 874.75H1400.25V700.25H1574.75V874.75ZM1574.75 699.75H1400.25V525.25H1574.75V699.75ZM1399.75 525.25V699.75L1225.25 699.75V525.25L1399.75 525.25ZM1574.75 524.75H1400.25V350.25H1574.75V524.75ZM1399.75 350.25V524.75L1225.25 524.75V350.25L1399.75 350.25ZM1050.25 350.25H1224.75V524.75H1050.25V350.25ZM1050.25 525.25H1224.75V699.75H1050.25V525.25ZM1050.25 700.25H1224.75V874.75H1050.25V700.25ZM1399.75 874.75H1225.25V700.25L1399.75 700.25V874.75ZM1049.75 700.25V874.75H875.25V700.25H1049.75ZM874.75 700.25V874.75L700.25 874.75V700.25L874.75 700.25ZM699.75 700.25V874.75H525.25V700.25H699.75ZM524.75 700.25V874.75H350.25V700.25H524.75ZM349.75 700.25V874.75H175.25L175.25 700.25H349.75ZM349.75 699.75H175.25V525.25H349.75V699.75ZM349.75 524.75H175.25V350.25H349.75L349.75 524.75ZM350.25 524.75L350.25 350.25H524.75L524.75 524.75H350.25ZM525.25 524.75L525.25 350.25H699.75L699.75 524.75H525.25ZM700.25 524.75L700.25 350.25L874.75 350.25V524.75L700.25 524.75ZM875.25 524.75V350.25H1049.75V524.75H875.25ZM875.25 525.25H1049.75V699.75H875.25V525.25ZM874.75 525.25V699.75L700.25 699.75V525.25L874.75 525.25ZM699.75 525.25V699.75H525.25V525.25H699.75ZM524.75 525.25V699.75H350.25V525.25H524.75Z" stroke="url(#paint0_radial_3414_21497)" stroke-opacity="0.3" stroke-width="0.5"></path><defs><radialGradient id="paint0_radial_3414_21497" cx="0" cy="0" r="1" gradientUnits="userSpaceOnUse" gradientTransform="translate(654 461) rotate(38.9939) scale(723.097 568.848)"><stop stop-color="#B7FFFF"></stop><stop offset="1" stop-opacity="0"></stop></radialGradient></defs></svg>