<svg width="809" height="832" viewBox="0 0 809 832" fill="none"><mask id="mask0_79_2257" maskUnits="userSpaceOnUse" x="0" y="0" width="809" height="832" style="mask-type: alpha;"><rect width="832" height="809" transform="matrix(0 -1 -1 0 809 832)" fill="url(#paint0_linear_79_2257)"></rect></mask><g mask="url(#mask0_79_2257)"><path d="M568.423 36.4781V19.1929L585.707 19.1929V36.4781H568.423Z" fill="#EFEFEF"></path><path d="M568.423 73.1095V55.8243H585.707V73.1095H568.423Z" fill="#EFEFEF"></path><path d="M569.503 144.238V129.114H584.627V144.238H569.503Z" fill="#EFEFEF"></path><path d="M568.423 108.685V91.3994H585.707V108.685H568.423Z" fill="#EFEFEF"></path><path d="M569.503 180.887V165.763H584.627V180.887H569.503Z" fill="#EFEFEF"></path><path d="M603.984 36.4781V19.1929L621.268 19.1929V36.4781H603.984Z" fill="#EFEFEF"></path><path d="M603.984 73.1095V55.8243H621.268V73.1095H603.984Z" fill="#EFEFEF"></path><path d="M606.144 144.238V129.114H621.268V144.238H606.144Z" fill="#EFEFEF"></path><path d="M603.984 108.685V91.3994H621.268V108.685H603.984Z" fill="#EFEFEF"></path><path d="M606.144 180.887V165.763H621.268V180.887H606.144Z" fill="#EFEFEF"></path><path d="M640.625 36.4781V19.1929L657.91 19.1929V36.4781H640.625Z" fill="#EFEFEF"></path><path d="M640.625 73.1095V55.8243H657.91V73.1095H640.625Z" fill="#EFEFEF"></path><path d="M641.706 144.238V129.114H656.829V144.238H641.706Z" fill="#EFEFEF"></path><path d="M640.625 108.685V91.3994H657.91V108.685H640.625Z" fill="#EFEFEF"></path><path d="M641.706 180.887V165.763H656.829V180.887H641.706Z" fill="#EFEFEF"></path><path d="M676.185 36.4782V19.1929L693.469 19.1929V36.4782H676.185Z" fill="#EFEFEF"></path><path d="M676.185 73.1095V55.8243H693.469V73.1095H676.185Z" fill="#EFEFEF"></path><path d="M678.345 144.238V129.114H693.469V144.238H678.345Z" fill="#EFEFEF"></path><path d="M676.185 108.685V91.3994H693.469V108.685H676.185Z" fill="#EFEFEF"></path><path d="M678.345 180.887V165.763H693.469V180.887H678.345Z" fill="#EFEFEF"></path><path d="M712.827 36.4781V19.1929L730.111 19.1929V36.4781H712.827Z" fill="#EFEFEF"></path><path d="M712.827 73.1095V55.8243H730.111V73.1095H712.827Z" fill="#EFEFEF"></path><path d="M713.906 144.238V129.114H729.03V144.238H713.906Z" fill="#EFEFEF"></path><path d="M712.827 108.685V91.3994H730.111V108.685H712.827Z" fill="#EFEFEF"></path><path d="M713.906 180.887V165.763H729.03V180.887H713.906Z" fill="#EFEFEF"></path><path d="M748.385 36.4781V19.1929L765.669 19.1929V36.4781H748.385Z" fill="#EFEFEF"></path><path d="M748.385 73.1095V55.8243H765.669V73.1095H748.385Z" fill="#EFEFEF"></path><path d="M750.546 144.238V129.114H765.669V144.238H750.546Z" fill="#EFEFEF"></path><path d="M748.385 108.685V91.3994H765.669V108.685H748.385Z" fill="#EFEFEF"></path><path d="M750.546 180.887V165.763H765.669V180.887H750.546Z" fill="#EFEFEF"></path><path d="M785.026 36.4782V19.1929L802.31 19.1929V36.4782H785.026Z" fill="#EFEFEF"></path><path d="M785.026 73.1095V55.8243H802.31V73.1095H785.026Z" fill="#EFEFEF"></path><path d="M786.106 144.238V129.114H801.23V144.238H786.106Z" fill="#EFEFEF"></path><path d="M785.026 108.685V91.3994H802.31V108.685H785.026Z" fill="#EFEFEF"></path><path d="M786.106 180.887V165.763H801.23V180.887H786.106Z" fill="#EFEFEF"></path><path d="M569.503 216.445V201.32H584.627V216.445H569.503Z" fill="#EFEFEF"></path><path d="M570.583 287.558V275.675H582.466V287.558H570.583Z" fill="#EFEFEF"></path><path d="M570.583 250.936V239.052H582.466V250.936H570.583Z" fill="#EFEFEF"></path><path d="M570.583 323.142V311.259H582.466V323.142H570.583Z" fill="#EFEFEF"></path><path d="M571.664 394.271V384.548H581.386V394.271H571.664Z" fill="#EFEFEF"></path><path d="M571.664 358.696V348.973H581.386V358.696H571.664Z" fill="#EFEFEF"></path><path d="M571.664 430.902V421.179H581.386V430.902H571.664Z" fill="#EFEFEF"></path><path d="M573.824 500.942V494.46H580.306V500.942H573.824Z" fill="#EFEFEF"></path><path d="M573.824 465.394V458.912H580.306V465.394H573.824Z" fill="#EFEFEF"></path><path d="M573.824 537.591V531.109H580.306V537.591H573.824Z" fill="#EFEFEF"></path><path d="M574.904 608.72V604.398H579.225V608.72H574.904Z" fill="#EFEFEF"></path><path d="M574.904 572.062V567.74H579.225V572.062H574.904Z" fill="#EFEFEF"></path><path d="M574.904 645.351V641.03H579.225V645.351H574.904Z" fill="#EFEFEF"></path><path d="M575.985 715.396V713.236H578.145V715.396H575.985Z" fill="#EFEFEF"></path><path d="M575.985 679.849V677.688H578.145V679.849H575.985Z" fill="#EFEFEF"></path><path d="M575.985 752.055V749.894H578.145V752.055H575.985Z" fill="#EFEFEF"></path><path d="M606.144 216.445V201.32H621.268V216.445H606.144Z" fill="#EFEFEF"></path><path d="M607.225 287.558V275.675H619.107V287.558H607.225Z" fill="#EFEFEF"></path><path d="M607.225 250.936V239.052H619.107V250.936H607.225Z" fill="#EFEFEF"></path><path d="M607.225 323.142V311.258H619.107V323.142H607.225Z" fill="#EFEFEF"></path><path d="M608.305 394.271V384.548H618.027V394.271H608.305Z" fill="#EFEFEF"></path><path d="M608.305 358.696V348.973H618.027V358.696H608.305Z" fill="#EFEFEF"></path><path d="M608.305 430.902V421.179H618.027V430.902H608.305Z" fill="#EFEFEF"></path><path d="M609.385 500.942V494.46H615.867V500.942H609.385Z" fill="#EFEFEF"></path><path d="M609.385 465.394V458.912H615.867V465.394H609.385Z" fill="#EFEFEF"></path><path d="M609.385 537.591V531.109H615.867V537.591H609.385Z" fill="#EFEFEF"></path><path d="M610.466 608.72V604.398H614.787V608.72H610.466Z" fill="#EFEFEF"></path><path d="M610.466 572.062V567.74H614.787V572.062H610.466Z" fill="#EFEFEF"></path><path d="M610.466 645.351V641.03H614.787V645.351H610.466Z" fill="#EFEFEF"></path><path d="M611.545 715.396V713.236H613.706V715.396H611.545Z" fill="#EFEFEF"></path><path d="M611.545 679.849V677.688H613.706V679.849H611.545Z" fill="#EFEFEF"></path><path d="M611.545 752.055V749.894H613.706V752.055H611.545Z" fill="#EFEFEF"></path><path d="M641.706 216.445V201.32H656.829V216.445H641.706Z" fill="#EFEFEF"></path><path d="M642.786 287.558V275.675H654.668V287.558H642.786Z" fill="#EFEFEF"></path><path d="M642.786 250.936V239.052H654.668V250.936H642.786Z" fill="#EFEFEF"></path><path d="M642.786 323.142V311.258H654.668V323.142H642.786Z" fill="#EFEFEF"></path><path d="M643.866 394.271V384.548H653.588V394.271H643.866Z" fill="#EFEFEF"></path><path d="M643.866 358.696V348.973H653.588V358.696H643.866Z" fill="#EFEFEF"></path><path d="M643.866 430.902V421.179H653.588V430.902H643.866Z" fill="#EFEFEF"></path><path d="M646.027 500.942V494.46H652.508V500.942H646.027Z" fill="#EFEFEF"></path><path d="M646.027 465.394V458.912H652.508V465.394H646.027Z" fill="#EFEFEF"></path><path d="M646.027 537.591V531.109H652.508V537.591H646.027Z" fill="#EFEFEF"></path><path d="M647.107 608.72V604.398H651.428V608.72H647.107Z" fill="#EFEFEF"></path><path d="M647.107 572.062V567.74H651.428V572.062H647.107Z" fill="#EFEFEF"></path><path d="M647.107 645.351V641.03H651.428V645.351H647.107Z" fill="#EFEFEF"></path><path d="M648.187 715.397V713.236H650.348V715.397H648.187Z" fill="#EFEFEF"></path><path d="M648.187 679.848V677.688H650.348V679.848H648.187Z" fill="#EFEFEF"></path><path d="M648.187 752.055V749.894H650.348V752.055H648.187Z" fill="#EFEFEF"></path><path d="M678.345 216.445V201.32H693.469V216.445H678.345Z" fill="#EFEFEF"></path><path d="M679.425 287.558V275.675H691.308V287.558H679.425Z" fill="#EFEFEF"></path><path d="M679.425 250.936V239.052H691.308V250.936H679.425Z" fill="#EFEFEF"></path><path d="M679.425 323.142V311.259H691.308V323.142H679.425Z" fill="#EFEFEF"></path><path d="M680.506 394.271V384.548H690.228V394.271H680.506Z" fill="#EFEFEF"></path><path d="M680.506 358.696V348.973H690.228V358.696H680.506Z" fill="#EFEFEF"></path><path d="M680.506 430.902V421.179H690.228V430.902H680.506Z" fill="#EFEFEF"></path><path d="M681.586 500.942V494.46H688.068V500.942H681.586Z" fill="#EFEFEF"></path><path d="M681.586 465.394V458.912H688.068V465.394H681.586Z" fill="#EFEFEF"></path><path d="M681.586 537.591V531.109H688.068V537.591H681.586Z" fill="#EFEFEF"></path><path d="M682.666 608.72V604.398H686.987V608.72H682.666Z" fill="#EFEFEF"></path><path d="M682.666 572.062V567.74H686.987V572.062H682.666Z" fill="#EFEFEF"></path><path d="M682.666 645.351V641.03H686.987V645.351H682.666Z" fill="#EFEFEF"></path><path d="M683.746 715.397V713.236H685.907V715.397H683.746Z" fill="#EFEFEF"></path><path d="M683.746 679.848V677.688H685.907V679.848H683.746Z" fill="#EFEFEF"></path><path d="M683.746 752.055V749.894H685.907V752.055H683.746Z" fill="#EFEFEF"></path><path d="M713.906 216.445V201.32H729.03V216.445H713.906Z" fill="#EFEFEF"></path><path d="M714.986 287.558V275.675H726.869V287.558H714.986Z" fill="#EFEFEF"></path><path d="M714.986 250.936V239.052H726.869V250.936H714.986Z" fill="#EFEFEF"></path><path d="M714.986 323.142V311.259H726.869V323.142H714.986Z" fill="#EFEFEF"></path><path d="M717.147 394.271V384.548H726.869V394.271H717.147Z" fill="#EFEFEF"></path><path d="M717.147 358.696V348.973H726.869V358.696H717.147Z" fill="#EFEFEF"></path><path d="M717.147 430.902V421.179H726.869V430.902H717.147Z" fill="#EFEFEF"></path><path d="M718.228 500.942V494.46H724.709V500.942H718.228Z" fill="#EFEFEF"></path><path d="M718.228 465.394V458.912H724.709V465.394H718.228Z" fill="#EFEFEF"></path><path d="M718.228 537.591V531.109H724.709V537.591H718.228Z" fill="#EFEFEF"></path><path d="M719.308 608.72V604.398H723.629V608.72H719.308Z" fill="#EFEFEF"></path><path d="M719.308 572.062V567.74H723.629V572.062H719.308Z" fill="#EFEFEF"></path><path d="M719.308 645.351V641.03H723.629V645.351H719.308Z" fill="#EFEFEF"></path><path d="M720.388 715.396V713.236H722.548V715.396H720.388Z" fill="#EFEFEF"></path><path d="M720.388 679.849V677.688H722.548V679.849H720.388Z" fill="#EFEFEF"></path><path d="M720.388 752.055V749.894H722.548V752.055H720.388Z" fill="#EFEFEF"></path><path d="M750.546 216.445V201.32H765.669V216.445H750.546Z" fill="#EFEFEF"></path><path d="M751.626 287.558V275.675H763.509V287.558H751.626Z" fill="#EFEFEF"></path><path d="M751.626 250.936V239.052H763.509V250.936H751.626Z" fill="#EFEFEF"></path><path d="M751.626 323.142V311.259H763.509V323.142H751.626Z" fill="#EFEFEF"></path><path d="M752.707 394.271V384.548H762.429V394.271H752.707Z" fill="#EFEFEF"></path><path d="M752.707 358.696V348.973H762.429V358.696H752.707Z" fill="#EFEFEF"></path><path d="M752.707 430.902V421.179H762.429V430.902H752.707Z" fill="#EFEFEF"></path><path d="M753.786 500.942V494.46H760.268V500.942H753.786Z" fill="#EFEFEF"></path><path d="M753.786 465.394V458.912H760.268V465.394H753.786Z" fill="#EFEFEF"></path><path d="M753.786 537.591V531.109H760.268V537.591H753.786Z" fill="#EFEFEF"></path><path d="M755.947 608.72V604.398H760.268V608.72H755.947Z" fill="#EFEFEF"></path><path d="M755.947 572.062V567.74H760.268V572.062H755.947Z" fill="#EFEFEF"></path><path d="M755.947 645.351V641.03H760.268V645.351H755.947Z" fill="#EFEFEF"></path><path d="M755.947 715.397V713.236H758.108V715.397H755.947Z" fill="#EFEFEF"></path><path d="M755.947 679.848V677.688H758.108V679.848H755.947Z" fill="#EFEFEF"></path><path d="M755.947 752.055V749.894H758.108V752.055H755.947Z" fill="#EFEFEF"></path><path d="M786.106 216.445V201.32H801.23V216.445H786.106Z" fill="#EFEFEF"></path><path d="M787.188 287.558V275.675H799.07V287.558H787.188Z" fill="#EFEFEF"></path><path d="M787.188 250.936V239.052H799.07V250.936H787.188Z" fill="#EFEFEF"></path><path d="M787.188 323.142V311.259H799.07V323.142H787.188Z" fill="#EFEFEF"></path><path d="M789.348 394.271V384.548H799.07V394.271H789.348Z" fill="#EFEFEF"></path><path d="M789.348 358.696V348.973H799.07V358.696H789.348Z" fill="#EFEFEF"></path><path d="M789.348 430.902V421.179H799.07V430.902H789.348Z" fill="#EFEFEF"></path><path d="M790.428 500.942V494.46H796.909V500.942H790.428Z" fill="#EFEFEF"></path><path d="M790.428 465.394V458.912H796.909V465.394H790.428Z" fill="#EFEFEF"></path><path d="M790.428 537.591V531.109H796.909V537.591H790.428Z" fill="#EFEFEF"></path><path d="M791.508 608.72V604.398H795.829V608.72H791.508Z" fill="#EFEFEF"></path><path d="M791.508 572.062V567.74H795.829V572.062H791.508Z" fill="#EFEFEF"></path><path d="M791.508 645.351V641.03H795.829V645.351H791.508Z" fill="#EFEFEF"></path><path d="M792.588 715.397V713.236H794.749V715.397H792.588Z" fill="#EFEFEF"></path><path d="M792.588 679.848V677.688H794.749V679.848H792.588Z" fill="#EFEFEF"></path><path d="M792.588 752.055V749.894H794.749V752.055H792.588Z" fill="#EFEFEF"></path><path d="M314 36.4786V19.1934L331.284 19.1934V36.4786H314Z" fill="#EFEFEF"></path><path d="M314 73.1094V55.8242H331.284V73.1094H314Z" fill="#EFEFEF"></path><path d="M315.08 144.239V129.114H330.203V144.239H315.08Z" fill="#EFEFEF"></path><path d="M314 108.685V91.3993H331.284V108.685H314Z" fill="#EFEFEF"></path><path d="M315.08 180.887V165.763H330.203V180.887H315.08Z" fill="#EFEFEF"></path><path d="M349.561 36.4786V19.1934L366.845 19.1934V36.4786H349.561Z" fill="#EFEFEF"></path><path d="M349.561 73.1094V55.8242H366.845V73.1094H349.561Z" fill="#EFEFEF"></path><path d="M351.721 144.239V129.114H366.844V144.239H351.721Z" fill="#EFEFEF"></path><path d="M349.561 108.685V91.3993H366.845V108.685H349.561Z" fill="#EFEFEF"></path><path d="M351.721 180.887V165.763H366.844V180.887H351.721Z" fill="#EFEFEF"></path><path d="M386.202 36.4783V19.1931L403.486 19.1931V36.4783H386.202Z" fill="#EFEFEF"></path><path d="M386.202 73.1094V55.8242H403.486V73.1094H386.202Z" fill="#EFEFEF"></path><path d="M387.282 144.239V129.114H402.405V144.239H387.282Z" fill="#EFEFEF"></path><path d="M386.202 108.685V91.3993H403.486V108.685H386.202Z" fill="#EFEFEF"></path><path d="M387.282 180.887V165.763H402.405V180.887H387.282Z" fill="#EFEFEF"></path><path d="M421.761 36.4786V19.1934L439.045 19.1934V36.4786H421.761Z" fill="#EFEFEF"></path><path d="M421.761 73.1094V55.8242H439.045V73.1094H421.761Z" fill="#EFEFEF"></path><path d="M423.922 144.239V129.114H439.045V144.239H423.922Z" fill="#EFEFEF"></path><path d="M421.761 108.685V91.3993H439.045V108.685H421.761Z" fill="#EFEFEF"></path><path d="M423.922 180.887V165.763H439.045V180.887H423.922Z" fill="#EFEFEF"></path><path d="M458.403 36.4786V19.1934L475.687 19.1934V36.4786H458.403Z" fill="#EFEFEF"></path><path d="M458.403 73.1094V55.8242H475.687V73.1094H458.403Z" fill="#EFEFEF"></path><path d="M459.483 144.239V129.114H474.606V144.239H459.483Z" fill="#EFEFEF"></path><path d="M458.403 108.685V91.3993H475.687V108.685H458.403Z" fill="#EFEFEF"></path><path d="M459.483 180.887V165.763H474.606V180.887H459.483Z" fill="#EFEFEF"></path><path d="M493.962 36.4786V19.1934L511.246 19.1934V36.4786H493.962Z" fill="#EFEFEF"></path><path d="M493.962 73.1094V55.8242H511.246V73.1094H493.962Z" fill="#EFEFEF"></path><path d="M496.123 144.239V129.114H511.246V144.239H496.123Z" fill="#EFEFEF"></path><path d="M493.962 108.685V91.3993H511.246V108.685H493.962Z" fill="#EFEFEF"></path><path d="M496.123 180.887V165.763H511.246V180.887H496.123Z" fill="#EFEFEF"></path><path d="M530.603 36.4783V19.1931L547.887 19.1931V36.4783H530.603Z" fill="#EFEFEF"></path><path d="M530.603 73.1094V55.8242H547.887V73.1094H530.603Z" fill="#EFEFEF"></path><path d="M531.683 144.239V129.114H546.807V144.239H531.683Z" fill="#EFEFEF"></path><path d="M530.603 108.685V91.3993H547.887V108.685H530.603Z" fill="#EFEFEF"></path><path d="M531.683 180.887V165.763H546.807V180.887H531.683Z" fill="#EFEFEF"></path><path d="M315.08 216.445V201.32H330.203V216.445H315.08Z" fill="#EFEFEF"></path><path d="M316.161 287.558V275.675H328.043V287.558H316.161Z" fill="#EFEFEF"></path><path d="M316.161 250.936V239.052H328.043V250.936H316.161Z" fill="#EFEFEF"></path><path d="M316.161 323.142V311.258H328.043V323.142H316.161Z" fill="#EFEFEF"></path><path d="M317.241 394.271V384.548H326.963V394.271H317.241Z" fill="#EFEFEF"></path><path d="M317.241 358.696V348.973H326.963V358.696H317.241Z" fill="#EFEFEF"></path><path d="M317.241 430.902V421.179H326.963V430.902H317.241Z" fill="#EFEFEF"></path><path d="M319.401 500.942V494.46H325.882V500.942H319.401Z" fill="#EFEFEF"></path><path d="M319.401 465.394V458.912H325.882V465.394H319.401Z" fill="#EFEFEF"></path><path d="M319.401 537.591V531.109H325.882V537.591H319.401Z" fill="#EFEFEF"></path><path d="M320.481 608.72V604.398H324.802V608.72H320.481Z" fill="#EFEFEF"></path><path d="M320.481 572.062V567.74H324.802V572.062H320.481Z" fill="#EFEFEF"></path><path d="M320.481 645.351V641.03H324.802V645.351H320.481Z" fill="#EFEFEF"></path><path d="M321.562 715.396V713.236H323.722V715.396H321.562Z" fill="#EFEFEF"></path><path d="M321.562 679.849V677.688H323.722V679.849H321.562Z" fill="#EFEFEF"></path><path d="M321.562 752.055V749.894H323.722V752.055H321.562Z" fill="#EFEFEF"></path><path d="M351.721 216.445V201.32H366.844V216.445H351.721Z" fill="#EFEFEF"></path><path d="M352.801 287.558V275.675H364.684V287.558H352.801Z" fill="#EFEFEF"></path><path d="M352.801 250.936V239.052H364.684V250.936H352.801Z" fill="#EFEFEF"></path><path d="M352.801 323.142V311.259H364.684V323.142H352.801Z" fill="#EFEFEF"></path><path d="M353.882 394.271V384.548H363.604V394.271H353.882Z" fill="#EFEFEF"></path><path d="M353.882 358.696V348.973H363.604V358.696H353.882Z" fill="#EFEFEF"></path><path d="M353.882 430.902V421.179H363.604V430.902H353.882Z" fill="#EFEFEF"></path><path d="M354.962 500.942V494.46H361.443V500.942H354.962Z" fill="#EFEFEF"></path><path d="M354.962 465.394V458.912H361.443V465.394H354.962Z" fill="#EFEFEF"></path><path d="M354.962 537.591V531.109H361.443V537.591H354.962Z" fill="#EFEFEF"></path><path d="M356.042 608.72V604.398H360.364V608.72H356.042Z" fill="#EFEFEF"></path><path d="M356.042 572.062V567.74H360.364V572.062H356.042Z" fill="#EFEFEF"></path><path d="M356.042 645.351V641.03H360.364V645.351H356.042Z" fill="#EFEFEF"></path><path d="M357.122 715.396V713.236H359.283V715.396H357.122Z" fill="#EFEFEF"></path><path d="M357.122 679.849V677.688H359.283V679.849H357.122Z" fill="#EFEFEF"></path><path d="M357.122 752.055V749.894H359.283V752.055H357.122Z" fill="#EFEFEF"></path><path d="M387.282 216.445V201.32H402.405V216.445H387.282Z" fill="#EFEFEF"></path><path d="M388.362 287.558V275.675H400.245V287.558H388.362Z" fill="#EFEFEF"></path><path d="M388.362 250.936V239.052H400.245V250.936H388.362Z" fill="#EFEFEF"></path><path d="M388.362 323.142V311.258H400.245V323.142H388.362Z" fill="#EFEFEF"></path><path d="M389.443 394.271V384.548H399.165V394.271H389.443Z" fill="#EFEFEF"></path><path d="M389.443 358.696V348.973H399.165V358.696H389.443Z" fill="#EFEFEF"></path><path d="M389.443 430.902V421.179H399.165V430.902H389.443Z" fill="#EFEFEF"></path><path d="M391.604 500.942V494.46H398.085V500.942H391.604Z" fill="#EFEFEF"></path><path d="M391.604 465.394V458.912H398.085V465.394H391.604Z" fill="#EFEFEF"></path><path d="M391.604 537.591V531.109H398.085V537.591H391.604Z" fill="#EFEFEF"></path><path d="M392.684 608.72V604.398H397.005V608.72H392.684Z" fill="#EFEFEF"></path><path d="M392.684 572.062V567.74H397.005V572.062H392.684Z" fill="#EFEFEF"></path><path d="M392.684 645.351V641.03H397.005V645.351H392.684Z" fill="#EFEFEF"></path><path d="M393.764 715.397V713.236H395.924V715.397H393.764Z" fill="#EFEFEF"></path><path d="M393.764 679.848V677.688H395.924V679.848H393.764Z" fill="#EFEFEF"></path><path d="M393.764 752.055V749.894H395.924V752.055H393.764Z" fill="#EFEFEF"></path><path d="M423.922 216.445V201.32H439.045V216.445H423.922Z" fill="#EFEFEF"></path><path d="M425.002 287.558V275.675H436.885V287.558H425.002Z" fill="#EFEFEF"></path><path d="M425.002 250.936V239.052H436.885V250.936H425.002Z" fill="#EFEFEF"></path><path d="M425.002 323.142V311.259H436.885V323.142H425.002Z" fill="#EFEFEF"></path><path d="M426.083 394.271V384.548H435.805V394.271H426.083Z" fill="#EFEFEF"></path><path d="M426.083 358.696V348.973H435.805V358.696H426.083Z" fill="#EFEFEF"></path><path d="M426.083 430.902V421.179H435.805V430.902H426.083Z" fill="#EFEFEF"></path><path d="M427.163 500.942V494.46H433.645V500.942H427.163Z" fill="#EFEFEF"></path><path d="M427.163 465.394V458.912H433.645V465.394H427.163Z" fill="#EFEFEF"></path><path d="M427.163 537.591V531.109H433.645V537.591H427.163Z" fill="#EFEFEF"></path><path d="M428.243 608.72V604.398H432.564V608.72H428.243Z" fill="#EFEFEF"></path><path d="M428.243 572.062V567.74H432.564V572.062H428.243Z" fill="#EFEFEF"></path><path d="M428.243 645.351V641.03H432.564V645.351H428.243Z" fill="#EFEFEF"></path><path d="M429.323 715.397V713.236H431.483V715.397H429.323Z" fill="#EFEFEF"></path><path d="M429.323 679.848V677.688H431.483V679.848H429.323Z" fill="#EFEFEF"></path><path d="M429.323 752.055V749.894H431.483V752.055H429.323Z" fill="#EFEFEF"></path><path d="M459.483 216.445V201.32H474.606V216.445H459.483Z" fill="#EFEFEF"></path><path d="M460.563 287.558V275.675H472.446V287.558H460.563Z" fill="#EFEFEF"></path><path d="M460.563 250.936V239.052H472.446V250.936H460.563Z" fill="#EFEFEF"></path><path d="M460.563 323.142V311.259H472.446V323.142H460.563Z" fill="#EFEFEF"></path><path d="M462.724 394.271V384.548H472.446V394.271H462.724Z" fill="#EFEFEF"></path><path d="M462.724 358.696V348.973H472.446V358.696H462.724Z" fill="#EFEFEF"></path><path d="M462.724 430.902V421.179H472.446V430.902H462.724Z" fill="#EFEFEF"></path><path d="M463.804 500.942V494.46H470.286V500.942H463.804Z" fill="#EFEFEF"></path><path d="M463.804 465.394V458.912H470.286V465.394H463.804Z" fill="#EFEFEF"></path><path d="M463.804 537.591V531.109H470.286V537.591H463.804Z" fill="#EFEFEF"></path><path d="M464.884 608.72V604.398H469.205V608.72H464.884Z" fill="#EFEFEF"></path><path d="M464.884 572.062V567.74H469.205V572.062H464.884Z" fill="#EFEFEF"></path><path d="M464.884 645.351V641.03H469.205V645.351H464.884Z" fill="#EFEFEF"></path><path d="M465.964 715.396V713.236H468.125V715.396H465.964Z" fill="#EFEFEF"></path><path d="M465.964 679.849V677.688H468.125V679.849H465.964Z" fill="#EFEFEF"></path><path d="M465.964 752.055V749.894H468.125V752.055H465.964Z" fill="#EFEFEF"></path><path d="M496.123 216.445V201.32H511.246V216.445H496.123Z" fill="#EFEFEF"></path><path d="M497.203 287.558V275.675H509.086V287.558H497.203Z" fill="#EFEFEF"></path><path d="M497.203 250.936V239.052H509.085V250.936H497.203Z" fill="#EFEFEF"></path><path d="M497.203 323.142V311.259H509.086V323.142H497.203Z" fill="#EFEFEF"></path><path d="M498.283 394.271V384.548H508.005V394.271H498.283Z" fill="#EFEFEF"></path><path d="M498.283 358.696V348.973H508.005V358.696H498.283Z" fill="#EFEFEF"></path><path d="M498.283 430.902V421.179H508.005V430.902H498.283Z" fill="#EFEFEF"></path><path d="M499.363 500.942V494.46H505.844V500.942H499.363Z" fill="#EFEFEF"></path><path d="M499.363 465.394V458.912H505.844V465.394H499.363Z" fill="#EFEFEF"></path><path d="M499.363 537.591V531.109H505.844V537.591H499.363Z" fill="#EFEFEF"></path><path d="M501.524 608.72V604.398H505.845V608.72H501.524Z" fill="#EFEFEF"></path><path d="M501.524 572.062V567.74H505.845V572.062H501.524Z" fill="#EFEFEF"></path><path d="M501.524 645.351V641.03H505.845V645.351H501.524Z" fill="#EFEFEF"></path><path d="M501.524 715.397V713.236H503.684V715.397H501.524Z" fill="#EFEFEF"></path><path d="M501.524 679.848V677.688H503.684V679.848H501.524Z" fill="#EFEFEF"></path><path d="M501.524 752.055V749.894H503.684V752.055H501.524Z" fill="#EFEFEF"></path><path d="M531.683 216.445V201.32H546.807V216.445H531.683Z" fill="#EFEFEF"></path><path d="M532.764 287.558V275.675H544.647V287.558H532.764Z" fill="#EFEFEF"></path><path d="M532.764 250.936V239.052H544.647V250.936H532.764Z" fill="#EFEFEF"></path><path d="M532.764 323.142V311.259H544.647V323.142H532.764Z" fill="#EFEFEF"></path><path d="M534.925 394.271V384.548H544.647V394.271H534.925Z" fill="#EFEFEF"></path><path d="M534.925 358.696V348.973H544.647V358.696H534.925Z" fill="#EFEFEF"></path><path d="M534.925 430.902V421.179H544.647V430.902H534.925Z" fill="#EFEFEF"></path><path d="M536.004 500.942V494.46H542.486V500.942H536.004Z" fill="#EFEFEF"></path><path d="M536.004 465.394V458.912H542.486V465.394H536.004Z" fill="#EFEFEF"></path><path d="M536.004 537.591V531.109H542.486V537.591H536.004Z" fill="#EFEFEF"></path><path d="M537.084 608.72V604.398H541.405V608.72H537.084Z" fill="#EFEFEF"></path><path d="M537.084 572.062V567.74H541.405V572.062H537.084Z" fill="#EFEFEF"></path><path d="M537.084 645.351V641.03H541.405V645.351H537.084Z" fill="#EFEFEF"></path><path d="M538.165 715.397V713.236H540.326V715.397H538.165Z" fill="#EFEFEF"></path><path d="M538.165 679.848V677.688H540.326V679.848H538.165Z" fill="#EFEFEF"></path><path d="M538.165 752.055V749.894H540.326V752.055H538.165Z" fill="#EFEFEF"></path><path d="M61 36.4786V19.1934L78.2841 19.1934V36.4786H61Z" fill="#EFEFEF"></path><path d="M61 73.1094V55.8242H78.2841V73.1094H61Z" fill="#EFEFEF"></path><path d="M62.0801 144.239V129.114H77.2037V144.239H62.0801Z" fill="#EFEFEF"></path><path d="M61 108.685V91.3993H78.2841V108.685H61Z" fill="#EFEFEF"></path><path d="M62.0801 180.887V165.763H77.2037V180.887H62.0801Z" fill="#EFEFEF"></path><path d="M96.5615 36.4786V19.1934L113.846 19.1934V36.4786H96.5615Z" fill="#EFEFEF"></path><path d="M96.5615 73.1094V55.8242H113.846V73.1094H96.5615Z" fill="#EFEFEF"></path><path d="M98.7212 144.239V129.114H113.845V144.239H98.7212Z" fill="#EFEFEF"></path><path d="M96.5615 108.685V91.3993H113.846V108.685H96.5615Z" fill="#EFEFEF"></path><path d="M98.7212 180.887V165.763H113.845V180.887H98.7212Z" fill="#EFEFEF"></path><path d="M133.203 36.4783V19.1931L150.487 19.1931V36.4783H133.203Z" fill="#EFEFEF"></path><path d="M133.203 73.1094V55.8242H150.487V73.1094H133.203Z" fill="#EFEFEF"></path><path d="M134.282 144.239V129.114H149.406V144.239H134.282Z" fill="#EFEFEF"></path><path d="M133.203 108.685V91.3993H150.487V108.685H133.203Z" fill="#EFEFEF"></path><path d="M134.282 180.887V165.763H149.406V180.887H134.282Z" fill="#EFEFEF"></path><path d="M168.762 36.4786V19.1934L186.046 19.1934V36.4786H168.762Z" fill="#EFEFEF"></path><path d="M168.762 73.1094V55.8242H186.046V73.1094H168.762Z" fill="#EFEFEF"></path><path d="M170.922 144.239V129.114H186.046V144.239H170.922Z" fill="#EFEFEF"></path><path d="M168.762 108.685V91.3993H186.046V108.685H168.762Z" fill="#EFEFEF"></path><path d="M170.922 180.887V165.763H186.046V180.887H170.922Z" fill="#EFEFEF"></path><path d="M205.403 36.4786V19.1934L222.687 19.1934V36.4786H205.403Z" fill="#EFEFEF"></path><path d="M205.403 73.1094V55.8242H222.687V73.1094H205.403Z" fill="#EFEFEF"></path><path d="M206.483 144.239V129.114H221.607V144.239H206.483Z" fill="#EFEFEF"></path><path d="M205.403 108.685V91.3993H222.687V108.685H205.403Z" fill="#EFEFEF"></path><path d="M206.483 180.887V165.763H221.607V180.887H206.483Z" fill="#EFEFEF"></path><path d="M240.962 36.4786V19.1934L258.246 19.1934V36.4786H240.962Z" fill="#EFEFEF"></path><path d="M240.962 73.1094V55.8242H258.246V73.1094H240.962Z" fill="#EFEFEF"></path><path d="M243.123 144.239V129.114H258.247V144.239H243.123Z" fill="#EFEFEF"></path><path d="M240.962 108.685V91.3993H258.246V108.685H240.962Z" fill="#EFEFEF"></path><path d="M243.123 180.887V165.763H258.247V180.887H243.123Z" fill="#EFEFEF"></path><path d="M277.604 36.4783V19.1931L294.888 19.1931V36.4783H277.604Z" fill="#EFEFEF"></path><path d="M277.604 73.1094V55.8242H294.888V73.1094H277.604Z" fill="#EFEFEF"></path><path d="M278.684 144.239V129.114H293.807V144.239H278.684Z" fill="#EFEFEF"></path><path d="M277.604 108.685V91.3993H294.888V108.685H277.604Z" fill="#EFEFEF"></path><path d="M278.684 180.887V165.763H293.807V180.887H278.684Z" fill="#EFEFEF"></path><path d="M62.0801 216.445V201.32H77.2037V216.445H62.0801Z" fill="#EFEFEF"></path><path d="M63.1611 287.558V275.675H75.044V287.558H63.1611Z" fill="#EFEFEF"></path><path d="M63.1611 250.936V239.052H75.044V250.936H63.1611Z" fill="#EFEFEF"></path><path d="M63.1611 323.142V311.258H75.044V323.142H63.1611Z" fill="#EFEFEF"></path><path d="M64.2412 394.271V384.548H73.9635V394.271H64.2412Z" fill="#EFEFEF"></path><path d="M64.2412 358.696V348.973H73.9635V358.696H64.2412Z" fill="#EFEFEF"></path><path d="M64.2412 430.902V421.179H73.9635V430.902H64.2412Z" fill="#EFEFEF"></path><path d="M66.4014 500.942V494.46H72.8829V500.942H66.4014Z" fill="#EFEFEF"></path><path d="M66.4014 465.394V458.912H72.8829V465.394H66.4014Z" fill="#EFEFEF"></path><path d="M66.4014 537.591V531.109H72.8829V537.591H66.4014Z" fill="#EFEFEF"></path><path d="M67.4814 608.72V604.398H71.8025V608.72H67.4814Z" fill="#EFEFEF"></path><path d="M67.4814 572.062V567.74H71.8025V572.062H67.4814Z" fill="#EFEFEF"></path><path d="M67.4814 645.351V641.03H71.8025V645.351H67.4814Z" fill="#EFEFEF"></path><path d="M68.562 715.396V713.236H70.7225V715.396H68.562Z" fill="#EFEFEF"></path><path d="M68.562 679.849V677.688H70.7225V679.849H68.562Z" fill="#EFEFEF"></path><path d="M68.562 752.055V749.894H70.7225V752.055H68.562Z" fill="#EFEFEF"></path><path d="M98.7212 216.445V201.32H113.845V216.445H98.7212Z" fill="#EFEFEF"></path><path d="M99.8018 287.558V275.675H111.685V287.558H99.8018Z" fill="#EFEFEF"></path><path d="M99.8018 250.936V239.052H111.685V250.936H99.8018Z" fill="#EFEFEF"></path><path d="M99.8018 323.142V311.259H111.685V323.142H99.8018Z" fill="#EFEFEF"></path><path d="M100.882 394.271V384.548H110.605V394.271H100.882Z" fill="#EFEFEF"></path><path d="M100.882 358.696V348.973H110.605V358.696H100.882Z" fill="#EFEFEF"></path><path d="M100.882 430.902V421.179H110.605V430.902H100.882Z" fill="#EFEFEF"></path><path d="M101.962 500.942V494.46H108.444V500.942H101.962Z" fill="#EFEFEF"></path><path d="M101.962 465.394V458.912H108.444V465.394H101.962Z" fill="#EFEFEF"></path><path d="M101.962 537.591V531.109H108.444V537.591H101.962Z" fill="#EFEFEF"></path><path d="M103.043 608.72V604.398H107.364V608.72H103.043Z" fill="#EFEFEF"></path><path d="M103.043 572.062V567.74H107.364V572.062H103.043Z" fill="#EFEFEF"></path><path d="M103.043 645.351V641.03H107.364V645.351H103.043Z" fill="#EFEFEF"></path><path d="M104.123 715.396V713.236H106.283V715.396H104.123Z" fill="#EFEFEF"></path><path d="M104.123 679.849V677.688H106.283V679.849H104.123Z" fill="#EFEFEF"></path><path d="M104.123 752.055V749.894H106.283V752.055H104.123Z" fill="#EFEFEF"></path><path d="M134.282 216.445V201.32H149.406V216.445H134.282Z" fill="#EFEFEF"></path><path d="M135.363 287.558V275.675H147.246V287.558H135.363Z" fill="#EFEFEF"></path><path d="M135.363 250.936V239.052H147.246V250.936H135.363Z" fill="#EFEFEF"></path><path d="M135.363 323.142V311.258H147.246V323.142H135.363Z" fill="#EFEFEF"></path><path d="M136.443 394.271V384.548H146.166V394.271H136.443Z" fill="#EFEFEF"></path><path d="M136.443 358.696V348.973H146.166V358.696H136.443Z" fill="#EFEFEF"></path><path d="M136.443 430.902V421.179H146.166V430.902H136.443Z" fill="#EFEFEF"></path><path d="M138.604 500.942V494.46H145.086V500.942H138.604Z" fill="#EFEFEF"></path><path d="M138.604 465.394V458.912H145.086V465.394H138.604Z" fill="#EFEFEF"></path><path d="M138.604 537.591V531.109H145.086V537.591H138.604Z" fill="#EFEFEF"></path><path d="M139.684 608.72V604.398H144.005V608.72H139.684Z" fill="#EFEFEF"></path><path d="M139.684 572.062V567.74H144.005V572.062H139.684Z" fill="#EFEFEF"></path><path d="M139.684 645.351V641.03H144.005V645.351H139.684Z" fill="#EFEFEF"></path><path d="M140.764 715.397V713.236H142.925V715.397H140.764Z" fill="#EFEFEF"></path><path d="M140.764 679.848V677.688H142.925V679.848H140.764Z" fill="#EFEFEF"></path><path d="M140.764 752.055V749.894H142.925V752.055H140.764Z" fill="#EFEFEF"></path><path d="M170.922 216.445V201.32H186.046V216.445H170.922Z" fill="#EFEFEF"></path><path d="M172.002 287.558V275.675H183.885V287.558H172.002Z" fill="#EFEFEF"></path><path d="M172.002 250.936V239.052H183.885V250.936H172.002Z" fill="#EFEFEF"></path><path d="M172.002 323.142V311.259H183.885V323.142H172.002Z" fill="#EFEFEF"></path><path d="M173.083 394.271V384.548H182.805V394.271H173.083Z" fill="#EFEFEF"></path><path d="M173.083 358.696V348.973H182.805V358.696H173.083Z" fill="#EFEFEF"></path><path d="M173.083 430.902V421.179H182.805V430.902H173.083Z" fill="#EFEFEF"></path><path d="M174.164 500.942V494.46H180.645V500.942H174.164Z" fill="#EFEFEF"></path><path d="M174.164 465.394V458.912H180.645V465.394H174.164Z" fill="#EFEFEF"></path><path d="M174.164 537.591V531.109H180.645V537.591H174.164Z" fill="#EFEFEF"></path><path d="M175.243 608.72V604.398H179.564V608.72H175.243Z" fill="#EFEFEF"></path><path d="M175.243 572.062V567.74H179.564V572.062H175.243Z" fill="#EFEFEF"></path><path d="M175.243 645.351V641.03H179.564V645.351H175.243Z" fill="#EFEFEF"></path><path d="M176.323 715.397V713.236H178.484V715.397H176.323Z" fill="#EFEFEF"></path><path d="M176.323 679.848V677.688H178.484V679.848H176.323Z" fill="#EFEFEF"></path><path d="M176.323 752.055V749.894H178.484V752.055H176.323Z" fill="#EFEFEF"></path><path d="M206.483 216.445V201.32H221.607V216.445H206.483Z" fill="#EFEFEF"></path><path d="M207.563 287.558V275.675H219.446V287.558H207.563Z" fill="#EFEFEF"></path><path d="M207.563 250.936V239.052H219.446V250.936H207.563Z" fill="#EFEFEF"></path><path d="M207.563 323.142V311.259H219.446V323.142H207.563Z" fill="#EFEFEF"></path><path d="M209.724 394.271V384.548H219.446V394.271H209.724Z" fill="#EFEFEF"></path><path d="M209.724 358.696V348.973H219.446V358.696H209.724Z" fill="#EFEFEF"></path><path d="M209.724 430.902V421.179H219.446V430.902H209.724Z" fill="#EFEFEF"></path><path d="M210.805 500.942V494.46H217.286V500.942H210.805Z" fill="#EFEFEF"></path><path d="M210.805 465.394V458.912H217.286V465.394H210.805Z" fill="#EFEFEF"></path><path d="M210.805 537.591V531.109H217.286V537.591H210.805Z" fill="#EFEFEF"></path><path d="M211.885 608.72V604.398H216.206V608.72H211.885Z" fill="#EFEFEF"></path><path d="M211.885 572.062V567.74H216.206V572.062H211.885Z" fill="#EFEFEF"></path><path d="M211.885 645.351V641.03H216.206V645.351H211.885Z" fill="#EFEFEF"></path><path d="M212.965 715.396V713.236H215.125V715.396H212.965Z" fill="#EFEFEF"></path><path d="M212.965 679.849V677.688H215.125V679.849H212.965Z" fill="#EFEFEF"></path><path d="M212.965 752.055V749.894H215.125V752.055H212.965Z" fill="#EFEFEF"></path><path d="M243.123 216.445V201.32H258.247V216.445H243.123Z" fill="#EFEFEF"></path><path d="M244.204 287.558V275.675H256.086V287.558H244.204Z" fill="#EFEFEF"></path><path d="M244.203 250.936V239.052H256.086V250.936H244.203Z" fill="#EFEFEF"></path><path d="M244.204 323.142V311.259H256.086V323.142H244.204Z" fill="#EFEFEF"></path><path d="M245.284 394.271V384.548H255.006V394.271H245.284Z" fill="#EFEFEF"></path><path d="M245.284 358.696V348.973H255.006V358.696H245.284Z" fill="#EFEFEF"></path><path d="M245.284 430.902V421.179H255.006V430.902H245.284Z" fill="#EFEFEF"></path><path d="M246.363 500.942V494.46H252.845V500.942H246.363Z" fill="#EFEFEF"></path><path d="M246.363 465.394V458.912H252.845V465.394H246.363Z" fill="#EFEFEF"></path><path d="M246.363 537.591V531.109H252.845V537.591H246.363Z" fill="#EFEFEF"></path><path d="M248.524 608.72V604.398H252.845V608.72H248.524Z" fill="#EFEFEF"></path><path d="M248.524 572.062V567.74H252.845V572.062H248.524Z" fill="#EFEFEF"></path><path d="M248.524 645.351V641.03H252.845V645.351H248.524Z" fill="#EFEFEF"></path><path d="M248.524 715.397V713.236H250.685V715.397H248.524Z" fill="#EFEFEF"></path><path d="M248.524 679.848V677.688H250.685V679.848H248.524Z" fill="#EFEFEF"></path><path d="M248.524 752.055V749.894H250.685V752.055H248.524Z" fill="#EFEFEF"></path><path d="M278.684 216.445V201.32H293.807V216.445H278.684Z" fill="#EFEFEF"></path><path d="M279.765 287.558V275.675H291.647V287.558H279.765Z" fill="#EFEFEF"></path><path d="M279.765 250.936V239.052H291.647V250.936H279.765Z" fill="#EFEFEF"></path><path d="M279.765 323.142V311.259H291.647V323.142H279.765Z" fill="#EFEFEF"></path><path d="M281.925 394.271V384.548H291.648V394.271H281.925Z" fill="#EFEFEF"></path><path d="M281.925 358.696V348.973H291.648V358.696H281.925Z" fill="#EFEFEF"></path><path d="M281.925 430.902V421.179H291.648V430.902H281.925Z" fill="#EFEFEF"></path><path d="M283.005 500.942V494.46H289.486V500.942H283.005Z" fill="#EFEFEF"></path><path d="M283.005 465.394V458.912H289.486V465.394H283.005Z" fill="#EFEFEF"></path><path d="M283.005 537.591V531.109H289.486V537.591H283.005Z" fill="#EFEFEF"></path><path d="M284.085 608.72V604.398H288.406V608.72H284.085Z" fill="#EFEFEF"></path><path d="M284.085 572.062V567.74H288.406V572.062H284.085Z" fill="#EFEFEF"></path><path d="M284.085 645.351V641.03H288.406V645.351H284.085Z" fill="#EFEFEF"></path><path d="M285.166 715.397V713.236H287.326V715.397H285.166Z" fill="#EFEFEF"></path><path d="M285.166 679.848V677.688H287.326V679.848H285.166Z" fill="#EFEFEF"></path><path d="M285.166 752.055V749.894H287.326V752.055H285.166Z" fill="#EFEFEF"></path></g><defs><linearGradient id="paint0_linear_79_2257" x1="416" y1="0" x2="416" y2="809" gradientUnits="userSpaceOnUse"><stop stop-color="#C4C4C4"></stop><stop offset="0.897481" stop-color="#C4C4C4" stop-opacity="0"></stop></linearGradient></defs></svg>