<svg width="100" height="100" viewBox="0 0 100 100" fill="none" xmlns="http://www.w3.org/2000/svg">
<g clip-path="url(#clip0_24_2)">
<path d="M44.0099 83.75C44.3063 83.75 44.5998 83.6916 44.8737 83.5782C45.1475 83.4648 45.3963 83.2985 45.6059 83.0889C45.8155 82.8794 45.9817 82.6306 46.0951 82.3567C46.2086 82.0829 46.2669 81.7894 46.2669 81.493C46.2669 81.1966 46.2086 80.9031 46.0951 80.6293C45.9817 80.3554 45.8155 80.1066 45.6059 79.8971C45.3963 79.6875 45.1475 79.5212 44.8737 79.4078C44.5998 79.2944 44.3063 79.236 44.0099 79.236C43.4114 79.236 42.8373 79.4738 42.414 79.8971C41.9907 80.3203 41.7529 80.8944 41.7529 81.493C41.7529 82.0916 41.9907 82.6657 42.414 83.0889C42.8373 83.5122 43.4114 83.75 44.0099 83.75ZM42.6919 93.125C43.1277 93.1326 43.5606 93.0533 43.9654 92.8919C44.3702 92.7304 44.7388 92.4899 45.0496 92.1844C45.3605 91.8789 45.6074 91.5146 45.7759 91.1127C45.9444 90.7108 46.0312 90.2793 46.0312 89.8435C46.0312 89.4077 45.9444 88.9762 45.7759 88.5743C45.6074 88.1724 45.3605 87.8081 45.0496 87.5026C44.7388 87.1971 44.3702 86.9566 43.9654 86.7951C43.5606 86.6336 43.1277 86.5544 42.6919 86.562C41.8316 86.577 41.0115 86.9294 40.4083 87.5431C39.8052 88.1569 39.4672 88.983 39.4672 89.8435C39.4672 90.704 39.8052 91.5301 40.4083 92.1439C41.0115 92.7576 41.8316 93.11 42.6919 93.125ZM50.3249 89.307C50.9966 89.307 51.6408 89.0402 52.1157 88.5652C52.5906 88.0903 52.8574 87.4462 52.8574 86.7745C52.8574 86.1028 52.5906 85.4587 52.1157 84.9837C51.6408 84.5088 50.9966 84.242 50.3249 84.242C49.6533 84.242 49.0091 84.5088 48.5342 84.9837C48.0593 85.4587 47.7924 86.1028 47.7924 86.7745C47.7924 87.4462 48.0593 88.0903 48.5342 88.5652C49.0091 89.0402 49.6533 89.307 50.3249 89.307ZM50.1079 100C50.611 100.008 51.1107 99.9161 51.5779 99.7293C52.045 99.5424 52.4704 99.2644 52.829 98.9115C53.1877 98.5586 53.4725 98.1379 53.667 97.6738C53.8614 97.2098 53.9615 96.7117 53.9615 96.2085C53.9615 95.7053 53.8614 95.2072 53.667 94.7432C53.4725 94.2791 53.1877 93.8584 52.829 93.5055C52.4704 93.1526 52.045 92.8746 51.5779 92.6877C51.1107 92.5009 50.611 92.4088 50.1079 92.417C49.113 92.4332 48.1644 92.8397 47.4665 93.549C46.7686 94.2583 46.3775 95.2135 46.3775 96.2085C46.3775 97.2035 46.7686 98.1587 47.4665 98.868C48.1644 99.5773 49.113 99.9838 50.1079 100ZM32.4139 79.065C33.0125 79.065 33.5866 78.8272 34.0099 78.4039C34.4332 77.9807 34.6709 77.4066 34.6709 76.808C34.6709 76.2094 34.4332 75.6353 34.0099 75.2121C33.5866 74.7888 33.0125 74.551 32.4139 74.551C31.8154 74.551 31.2413 74.7888 30.818 75.2121C30.3947 75.6353 30.1569 76.2094 30.1569 76.808C30.1569 77.4066 30.3947 77.9807 30.818 78.4039C31.2413 78.8272 31.8154 79.065 32.4139 79.065ZM27.9999 87.293C28.4357 87.3006 28.8686 87.2213 29.2734 87.0599C29.6782 86.8984 30.0468 86.6579 30.3576 86.3524C30.6685 86.0469 30.9154 85.6826 31.0839 85.2807C31.2524 84.8788 31.3392 84.4473 31.3392 84.0115C31.3392 83.5757 31.2524 83.1442 31.0839 82.7423C30.9154 82.3404 30.6685 81.9761 30.3576 81.6706C30.0468 81.3651 29.6782 81.1246 29.2734 80.9631C28.8686 80.8016 28.4357 80.7224 27.9999 80.73C27.1396 80.745 26.3195 81.0974 25.7163 81.7111C25.1132 82.3249 24.7752 83.151 24.7752 84.0115C24.7752 84.872 25.1132 85.6981 25.7163 86.3119C26.3195 86.9256 27.1396 87.278 27.9999 87.293ZM36.2279 86.635C36.8996 86.635 37.5438 86.3682 38.0187 85.8932C38.4936 85.4183 38.7604 84.7742 38.7604 84.1025C38.7604 83.4308 38.4936 82.7867 38.0187 82.3118C37.5438 81.8368 36.8996 81.57 36.2279 81.57C35.5563 81.57 34.9121 81.8368 34.4372 82.3118C33.9623 82.7867 33.6954 83.4308 33.6954 84.1025C33.6954 84.7742 33.9623 85.4183 34.4372 85.8932C34.9121 86.3682 35.5563 86.635 36.2279 86.635ZM32.4189 96.524C32.922 96.5322 33.4217 96.4401 33.8889 96.2533C34.356 96.0664 34.7814 95.7884 35.14 95.4355C35.4987 95.0826 35.7835 94.6619 35.978 94.1978C36.1724 93.7338 36.2725 93.2357 36.2725 92.7325C36.2725 92.2293 36.1724 91.7312 35.978 91.2672C35.7835 90.8031 35.4987 90.3823 35.14 90.0295C34.7814 89.6766 34.356 89.3986 33.8889 89.2117C33.4217 89.0249 32.922 88.9328 32.4189 88.941C31.424 88.9572 30.4754 89.3637 29.7775 90.073C29.0796 90.7823 28.6885 91.7375 28.6885 92.7325C28.6885 93.7275 29.0796 94.6827 29.7775 95.392C30.4754 96.1013 31.424 96.5078 32.4189 96.524ZM23.4949 70.294C24.0935 70.294 24.6676 70.0562 25.0909 69.6329C25.5142 69.2097 25.7519 68.6356 25.7519 68.037C25.7519 67.4384 25.5142 66.8643 25.0909 66.4411C24.6676 66.0178 24.0935 65.78 23.4949 65.78C22.8964 65.78 22.3223 66.0178 21.899 66.4411C21.4757 66.8643 21.2379 67.4384 21.2379 68.037C21.2379 68.6356 21.4757 69.2097 21.899 69.6329C22.3223 70.0562 22.8964 70.294 23.4949 70.294ZM16.6559 76.289C17.0917 76.2966 17.5246 76.2174 17.9294 76.0559C18.3342 75.8944 18.7028 75.6539 19.0136 75.3484C19.3245 75.0429 19.5714 74.6786 19.7399 74.2767C19.9084 73.8748 19.9952 73.4433 19.9952 73.0075C19.9952 72.5717 19.9084 72.1402 19.7399 71.7383C19.5714 71.3364 19.3245 70.9721 19.0136 70.6666C18.7028 70.3611 18.3342 70.1206 17.9294 69.9591C17.5246 69.7976 17.0917 69.7184 16.6559 69.726C15.7956 69.741 14.9755 70.0933 14.3723 70.7071C13.7692 71.3209 13.4312 72.147 13.4312 73.0075C13.4312 73.868 13.7692 74.6941 14.3723 75.3079C14.9755 75.9217 15.7956 76.274 16.6559 76.289ZM24.2259 78.767C24.8976 78.767 25.5418 78.5002 26.0167 78.0252C26.4916 77.5503 26.7584 76.9062 26.7584 76.2345C26.7584 75.5628 26.4916 74.9187 26.0167 74.4437C25.5418 73.9688 24.8976 73.702 24.2259 73.702C23.5543 73.702 22.9101 73.9688 22.4352 74.4437C21.9603 74.9187 21.6934 75.5628 21.6934 76.2345C21.6934 76.9062 21.9603 77.5503 22.4352 78.0252C22.9101 78.5002 23.5543 78.767 24.2259 78.767ZM17.4049 86.544C17.908 86.5522 18.4077 86.4601 18.8749 86.2733C19.342 86.0864 19.7674 85.8084 20.126 85.4555C20.4847 85.1026 20.7695 84.6819 20.964 84.2178C21.1584 83.7538 21.2585 83.2557 21.2585 82.7525C21.2585 82.2493 21.1584 81.7512 20.964 81.2872C20.7695 80.8231 20.4847 80.4024 20.126 80.0495C19.7674 79.6966 19.342 79.4186 18.8749 79.2317C18.4077 79.0449 17.908 78.9528 17.4049 78.961C16.41 78.9772 15.4614 79.3837 14.7635 80.093C14.0656 80.8023 13.6745 81.7575 13.6745 82.7525C13.6745 83.7475 14.0656 84.7027 14.7635 85.412C15.4614 86.1213 16.41 86.5278 17.4049 86.544ZM18.6099 58.775C19.2085 58.775 19.7826 58.5372 20.2059 58.1139C20.6292 57.6907 20.8669 57.1166 20.8669 56.518C20.8669 55.9194 20.6292 55.3453 20.2059 54.9221C19.7826 54.4988 19.2085 54.261 18.6099 54.261C18.0114 54.261 17.4373 54.4988 17.014 54.9221C16.5907 55.3453 16.3529 55.9194 16.3529 56.518C16.3529 57.1166 16.5907 57.6907 17.014 58.1139C17.4373 58.5372 18.0114 58.775 18.6099 58.775ZM10.3899 61.777C11.2604 61.777 12.0952 61.4312 12.7107 60.8157C13.3262 60.2002 13.6719 59.3654 13.6719 58.495C13.6719 57.6246 13.3262 56.7898 12.7107 56.1743C12.0952 55.5588 11.2604 55.213 10.3899 55.213C9.51951 55.213 8.68472 55.5588 8.06922 56.1743C7.45373 56.7898 7.10795 57.6246 7.10795 58.495C7.10795 59.3654 7.45373 60.2002 8.06922 60.8157C8.68472 61.4312 9.51951 61.777 10.3899 61.777ZM16.1459 66.909C16.8176 66.909 17.4618 66.6422 17.9367 66.1673C18.4116 65.6923 18.6784 65.0482 18.6784 64.3765C18.6784 63.7048 18.4116 63.0607 17.9367 62.5857C17.4618 62.1108 16.8176 61.844 16.1459 61.844C15.4743 61.844 14.8301 62.1108 14.3552 62.5857C13.8803 63.0607 13.6134 63.7048 13.6134 64.3765C13.6134 65.0482 13.8803 65.6923 14.3552 66.1673C14.8301 66.6422 15.4743 66.909 16.1459 66.909ZM7.35295 71.576C7.85603 71.5842 8.35572 71.4921 8.82288 71.3053C9.29005 71.1184 9.71535 70.8404 10.074 70.4875C10.4327 70.1347 10.7175 69.7139 10.912 69.2498C11.1064 68.7858 11.2065 68.2877 11.2065 67.7845C11.2065 67.2813 11.1064 66.7832 10.912 66.3192C10.7175 65.8551 10.4327 65.4344 10.074 65.0815C9.71535 64.7286 9.29005 64.4506 8.82288 64.2637C8.35572 64.0769 7.85603 63.9848 7.35295 63.993C6.35804 64.0092 5.40935 64.4157 4.71149 65.125C4.01363 65.8343 3.62252 66.7895 3.62252 67.7845C3.62252 68.7795 4.01363 69.7347 4.71149 70.444C5.40935 71.1533 6.35804 71.5598 7.35295 71.576ZM18.5019 46.267C19.1005 46.267 19.6746 46.0292 20.0979 45.6059C20.5212 45.1827 20.7589 44.6086 20.7589 44.01C20.7589 43.4114 20.5212 42.8373 20.0979 42.4141C19.6746 41.9908 19.1005 41.753 18.5019 41.753C17.9034 41.753 17.3293 41.9908 16.906 42.4141C16.4827 42.8373 16.2449 43.4114 16.2449 44.01C16.2449 44.6086 16.4827 45.1827 16.906 45.6059C17.3293 46.0292 17.9034 46.267 18.5019 46.267ZM10.1559 45.974C11.0263 45.974 11.8609 45.6283 12.4763 45.0129C13.0917 44.3975 13.4374 43.5628 13.4374 42.6925C13.4374 41.8222 13.0917 40.9875 12.4763 40.3721C11.8609 39.7567 11.0263 39.411 10.1559 39.411C9.28564 39.411 8.45098 39.7567 7.83558 40.3721C7.22017 40.9875 6.87445 41.8222 6.87445 42.6925C6.87445 43.5628 7.22017 44.3975 7.83558 45.0129C8.45098 45.6283 9.28564 45.974 10.1559 45.974ZM13.2259 52.857C13.8975 52.857 14.5415 52.5902 15.0163 52.1154C15.4912 51.6405 15.7579 50.9965 15.7579 50.325C15.7579 49.6535 15.4912 49.0094 15.0163 48.5346C14.5415 48.0598 13.8975 47.793 13.2259 47.793C12.5544 47.793 11.9104 48.0598 11.4356 48.5346C10.9607 49.0094 10.6939 49.6535 10.6939 50.325C10.6939 50.9965 10.9607 51.6405 11.4356 52.1154C11.9104 52.5902 12.5544 52.857 13.2259 52.857ZM3.79195 53.9C4.29503 53.9082 4.79472 53.8161 5.26188 53.6293C5.72905 53.4424 6.15435 53.1644 6.51301 52.8115C6.87167 52.4586 7.15652 52.0379 7.35095 51.5738C7.54539 51.1098 7.64552 50.6117 7.64552 50.1085C7.64552 49.6053 7.54539 49.1072 7.35095 48.6432C7.15652 48.1791 6.87167 47.7583 6.51301 47.4055C6.15435 47.0526 5.72905 46.7746 5.26188 46.5877C4.79472 46.4009 4.29503 46.3088 3.79195 46.317C2.79704 46.3332 1.84835 46.7397 1.15049 47.449C0.452631 48.1583 0.0615234 49.1135 0.0615234 50.1085C0.0615234 51.1035 0.452631 52.0587 1.15049 52.768C1.84835 53.4773 2.79704 53.8838 3.79195 53.9ZM23.1919 34.67C23.4923 34.6763 23.7908 34.6226 24.0701 34.5121C24.3494 34.4015 24.6039 34.2363 24.8185 34.0261C25.0331 33.816 25.2037 33.5651 25.3201 33.2882C25.4365 33.0113 25.4965 32.7139 25.4965 32.4135C25.4965 32.1131 25.4365 31.8157 25.3201 31.5388C25.2037 31.2619 25.0331 31.011 24.8185 30.8008C24.6039 30.5907 24.3494 30.4255 24.0701 30.3149C23.7908 30.2044 23.4923 30.1507 23.1919 30.157C22.5934 30.157 22.0193 30.3948 21.596 30.8181C21.1727 31.2413 20.9349 31.8154 20.9349 32.414C20.9349 33.0126 21.1727 33.5867 21.596 34.0099C22.0193 34.4332 22.5934 34.671 23.1919 34.671V34.67ZM15.9839 31.281C16.4197 31.2886 16.8526 31.2093 17.2574 31.0479C17.6622 30.8864 18.0308 30.6459 18.3416 30.3404C18.6525 30.0349 18.8994 29.6706 19.0679 29.2687C19.2364 28.8668 19.3232 28.4353 19.3232 27.9995C19.3232 27.5637 19.2364 27.1322 19.0679 26.7303C18.8994 26.3284 18.6525 25.9641 18.3416 25.6586C18.0308 25.3531 17.6622 25.1126 17.2574 24.9511C16.8526 24.7896 16.4197 24.7104 15.9839 24.718C15.1236 24.733 14.3035 25.0853 13.7003 25.6991C13.0972 26.3129 12.7592 27.139 12.7592 27.9995C12.7592 28.86 13.0972 29.6861 13.7003 30.2999C14.3035 30.9136 15.1236 31.266 15.9839 31.281ZM15.8979 38.76C16.5695 38.76 17.2135 38.4932 17.6883 38.0184C18.1632 37.5435 18.4299 36.8995 18.4299 36.228C18.4299 35.5565 18.1632 34.9124 17.6883 34.4376C17.2135 33.9628 16.5695 33.696 15.8979 33.696C15.2263 33.696 14.5821 33.9628 14.1072 34.4377C13.6323 34.9127 13.3654 35.5568 13.3654 36.2285C13.3654 36.9002 13.6323 37.5443 14.1072 38.0192C14.5821 38.4942 15.2263 38.761 15.8979 38.761V38.76ZM7.26695 36.21C7.77003 36.2182 8.26972 36.1261 8.73688 35.9393C9.20405 35.7524 9.62935 35.4744 9.98801 35.1215C10.3467 34.7686 10.6315 34.3479 10.826 33.8838C11.0204 33.4198 11.1205 32.9216 11.1205 32.4185C11.1205 31.9153 11.0204 31.4172 10.826 30.9531C10.6315 30.4891 10.3467 30.0683 9.98801 29.7155C9.62935 29.3626 9.20405 29.0846 8.73688 28.8977C8.26972 28.7109 7.77003 28.6188 7.26695 28.627C6.27204 28.6432 5.32335 29.0497 4.62549 29.759C3.92763 30.4683 3.53652 31.4235 3.53652 32.4185C3.53652 33.4135 3.92763 34.3687 4.62549 35.078C5.32335 35.7873 6.27204 36.1938 7.26695 36.21ZM31.9629 25.752C32.5615 25.752 33.1356 25.5142 33.5589 25.0909C33.9822 24.6677 34.2199 24.0936 34.2199 23.495C34.2199 22.8964 33.9822 22.3223 33.5589 21.8991C33.1356 21.4758 32.5615 21.238 31.9629 21.238C31.3644 21.238 30.7903 21.4758 30.367 21.8991C29.9437 22.3223 29.7059 22.8964 29.7059 23.495C29.7059 24.0936 29.9437 24.6677 30.367 25.0909C30.7903 25.5142 31.3644 25.752 31.9629 25.752ZM26.9929 19.938C27.4287 19.9456 27.8616 19.8663 28.2664 19.7049C28.6712 19.5434 29.0398 19.3029 29.3506 18.9974C29.6615 18.6919 29.9084 18.3276 30.0769 17.9257C30.2454 17.5238 30.3322 17.0923 30.3322 16.6565C30.3322 16.2207 30.2454 15.7892 30.0769 15.3873C29.9084 14.9854 29.6615 14.6211 29.3506 14.3156C29.0398 14.0101 28.6712 13.7696 28.2664 13.6081C27.8616 13.4466 27.4287 13.3674 26.9929 13.375C26.1326 13.39 25.3125 13.7423 24.7093 14.3561C24.1062 14.9699 23.7682 15.796 23.7682 16.6565C23.7682 17.517 24.1062 18.3431 24.7093 18.9569C25.3125 19.5706 26.1326 19.923 26.9929 19.938ZM23.7649 26.758C24.4365 26.758 25.0805 26.4912 25.5553 26.0164C26.0302 25.5415 26.2969 24.8975 26.2969 24.226C26.2969 23.5545 26.0302 22.9104 25.5553 22.4356C25.0805 21.9608 24.4365 21.694 23.7649 21.694C23.0934 21.694 22.4494 21.9608 21.9746 22.4356C21.4997 22.9104 21.2329 23.5545 21.2329 24.226C21.2329 24.8975 21.4997 25.5415 21.9746 26.0164C22.4494 26.4912 23.0934 26.758 23.7649 26.758ZM17.2469 21.197C17.75 21.2052 18.2497 21.1131 18.7169 20.9263C19.184 20.7394 19.6094 20.4614 19.968 20.1085C20.3267 19.7556 20.6115 19.3349 20.806 18.8708C21.0004 18.4068 21.1005 17.9087 21.1005 17.4055C21.1005 16.9023 21.0004 16.4042 20.806 15.9401C20.6115 15.4761 20.3267 15.0553 19.968 14.7025C19.6094 14.3496 19.184 14.0716 18.7169 13.8847C18.2497 13.6979 17.75 13.6058 17.2469 13.614C16.252 13.6302 15.3034 14.0367 14.6055 14.746C13.9076 15.4553 13.5165 16.4105 13.5165 17.4055C13.5165 18.4005 13.9076 19.3557 14.6055 20.065C15.3034 20.7743 16.252 21.1808 17.2469 21.197ZM43.4769 20.868C44.0755 20.868 44.6496 20.6302 45.0729 20.2069C45.4962 19.7837 45.7339 19.2096 45.7339 18.611C45.7339 18.0124 45.4962 17.4383 45.0729 17.0151C44.6496 16.5918 44.0755 16.354 43.4769 16.354C42.8784 16.354 42.3043 16.5918 41.881 17.0151C41.4577 17.4383 41.2199 18.0124 41.2199 18.611C41.2199 19.2096 41.4577 19.7837 41.881 20.2069C42.3043 20.6302 42.8784 20.868 43.4769 20.868ZM41.5049 13.672C41.9407 13.6796 42.3736 13.6003 42.7784 13.4389C43.1832 13.2774 43.5518 13.0369 43.8626 12.7314C44.1735 12.4259 44.4204 12.0616 44.5889 11.6597C44.7574 11.2578 44.8442 10.8263 44.8442 10.3905C44.8442 9.95468 44.7574 9.52322 44.5889 9.12131C44.4204 8.7194 44.1735 8.35507 43.8626 8.04961C43.5518 7.74414 43.1832 7.50364 42.7784 7.34214C42.3736 7.18065 41.9407 7.10139 41.5049 7.109C40.6446 7.12402 39.8245 7.47635 39.2213 8.09011C38.6182 8.70388 38.2802 9.52998 38.2802 10.3905C38.2802 11.251 38.6182 12.0771 39.2213 12.6909C39.8245 13.3046 40.6446 13.657 41.5049 13.672ZM35.6229 18.678C36.2945 18.678 36.9385 18.4112 37.4133 17.9364C37.8882 17.4615 38.1549 16.8175 38.1549 16.146C38.1549 15.4745 37.8882 14.8304 37.4133 14.3556C36.9385 13.8808 36.2945 13.614 35.6229 13.614C34.9514 13.614 34.3074 13.8808 33.8326 14.3556C33.3577 14.8304 33.0909 15.4745 33.0909 16.146C33.0909 16.8175 33.3577 17.4615 33.8326 17.9364C34.3074 18.4112 34.9514 18.678 35.6229 18.678ZM32.2149 11.145C32.718 11.1532 33.2177 11.0611 33.6849 10.8743C34.152 10.6874 34.5774 10.4094 34.936 10.0565C35.2947 9.70364 35.5795 9.28291 35.774 8.81884C35.9684 8.35477 36.0685 7.85665 36.0685 7.3535C36.0685 6.85034 35.9684 6.35222 35.774 5.88815C35.5795 5.42408 35.2947 5.00335 34.936 4.65046C34.5774 4.29758 34.152 4.0196 33.6849 3.83273C33.2177 3.64586 32.718 3.55383 32.2149 3.562C31.22 3.57815 30.2714 3.98472 29.5735 4.69401C28.8756 5.40329 28.4845 6.35846 28.4845 7.3535C28.4845 8.34853 28.8756 9.3037 29.5735 10.013C30.2714 10.7223 31.22 11.1288 32.2149 11.145ZM55.9849 20.76C56.5837 20.76 57.1579 20.5222 57.5812 20.0988C58.0046 19.6754 58.2424 19.1012 58.2424 18.5025C58.2424 17.9038 58.0046 17.3296 57.5812 16.9062C57.1579 16.4828 56.5837 16.245 55.9849 16.245C55.3864 16.245 54.8123 16.4828 54.389 16.9061C53.9657 17.3293 53.7279 17.9034 53.7279 18.502C53.7279 19.1006 53.9657 19.6747 54.389 20.0979C54.8123 20.5212 55.3864 20.76 55.9849 20.76ZM57.3079 13.438C57.7437 13.4456 58.1766 13.3663 58.5814 13.2049C58.9862 13.0434 59.3548 12.8029 59.6656 12.4974C59.9765 12.1919 60.2234 11.8276 60.3919 11.4257C60.5604 11.0238 60.6472 10.5923 60.6472 10.1565C60.6472 9.72068 60.5604 9.28922 60.3919 8.88731C60.2234 8.4854 59.9765 8.12108 59.6656 7.81561C59.3548 7.51014 58.9862 7.26964 58.5814 7.10814C58.1766 6.94665 57.7437 6.86739 57.3079 6.875C56.4476 6.89002 55.6275 7.24235 55.0243 7.85612C54.4212 8.46988 54.0832 9.29598 54.0832 10.1565C54.0832 11.017 54.4212 11.8431 55.0243 12.4569C55.6275 13.0706 56.4476 13.423 57.3079 13.438ZM49.6699 15.758C50.3416 15.758 50.9858 15.4912 51.4607 15.0162C51.9356 14.5413 52.2024 13.8972 52.2024 13.2255C52.2024 12.5538 51.9356 11.9097 51.4607 11.4347C50.9858 10.9598 50.3416 10.693 49.6699 10.693C48.9983 10.693 48.3541 10.9598 47.8792 11.4347C47.4043 11.9097 47.1374 12.5538 47.1374 13.2255C47.1374 13.8972 47.4043 14.5413 47.8792 15.0162C48.3541 15.4912 48.9983 15.758 49.6699 15.758ZM49.8869 7.583C50.39 7.59117 50.8897 7.49913 51.3569 7.31226C51.824 7.12539 52.2494 6.84741 52.608 6.49453C52.9667 6.14165 53.2515 5.72091 53.446 5.25684C53.6404 4.79277 53.7405 4.29465 53.7405 3.7915C53.7405 3.28834 53.6404 2.79022 53.446 2.32615C53.2515 1.86208 52.9667 1.44135 52.608 1.08846C52.2494 0.735581 51.824 0.457604 51.3569 0.270731C50.8897 0.0838583 50.39 -0.00817408 49.8869 -3.5027e-06C48.892 0.0161546 47.9434 0.422721 47.2455 1.13201C46.5476 1.84129 46.1565 2.79646 46.1565 3.7915C46.1565 4.78653 46.5476 5.7417 47.2455 6.45099C47.9434 7.16027 48.892 7.56684 49.8869 7.583ZM67.5859 25.45C68.1847 25.45 68.7589 25.2122 69.1822 24.7888C69.6056 24.3654 69.8434 23.7912 69.8434 23.1925C69.8434 22.5938 69.6056 22.0196 69.1822 21.5962C68.7589 21.1728 68.1847 20.935 67.5859 20.935C66.9874 20.935 66.4133 21.1728 65.99 21.5961C65.5667 22.0193 65.3289 22.5934 65.3289 23.192C65.3289 23.7906 65.5667 24.3647 65.99 24.7879C66.4133 25.2112 66.9874 25.449 67.5859 25.449V25.45ZM71.9999 19.265C72.4357 19.2726 72.8686 19.1933 73.2734 19.0319C73.6782 18.8704 74.0468 18.6299 74.3576 18.3244C74.6685 18.0189 74.9154 17.6546 75.0839 17.2527C75.2524 16.8508 75.3392 16.4193 75.3392 15.9835C75.3392 15.5477 75.2524 15.1162 75.0839 14.7143C74.9154 14.3124 74.6685 13.9481 74.3576 13.6426C74.0468 13.3371 73.6782 13.0966 73.2734 12.9351C72.8686 12.7736 72.4357 12.6944 71.9999 12.702C71.1396 12.717 70.3195 13.0693 69.7163 13.6831C69.1132 14.2969 68.7752 15.123 68.7752 15.9835C68.7752 16.844 69.1132 17.6701 69.7163 18.2839C70.3195 18.8976 71.1396 19.25 71.9999 19.265ZM63.7719 18.43C64.4435 18.43 65.0875 18.1632 65.5623 17.6884C66.0372 17.2135 66.3039 16.5695 66.3039 15.898C66.3039 15.2265 66.0372 14.5824 65.5623 14.1076C65.0875 13.6328 64.4435 13.366 63.7719 13.366C63.1004 13.366 62.4564 13.6328 61.9816 14.1076C61.5067 14.5824 61.2399 15.2265 61.2399 15.898C61.2399 16.5695 61.5067 17.2135 61.9816 17.6884C62.4564 18.1632 63.1004 18.43 63.7719 18.43ZM67.5819 11.059C68.085 11.0672 68.5847 10.9751 69.0519 10.7883C69.519 10.6014 69.9443 10.3234 70.303 9.97053C70.6617 9.61765 70.9465 9.19691 71.141 8.73284C71.3354 8.26877 71.4355 7.77065 71.4355 7.2675C71.4355 6.76434 71.3354 6.26622 71.141 5.80215C70.9465 5.33808 70.6617 4.91735 70.303 4.56446C69.9443 4.21158 69.519 3.9336 69.0519 3.74673C68.5847 3.55986 68.085 3.46783 67.5819 3.476C66.587 3.49215 65.6384 3.89872 64.9405 4.60801C64.2426 5.31729 63.8515 6.27246 63.8515 7.2675C63.8515 8.26253 64.2426 9.2177 64.9405 9.92698C65.6384 10.6363 66.587 11.0428 67.5819 11.059ZM76.5049 34.22C77.1035 34.22 77.6776 33.9822 78.1009 33.5589C78.5242 33.1357 78.7619 32.5616 78.7619 31.963C78.7619 31.3644 78.5242 30.7903 78.1009 30.3671C77.6776 29.9438 77.1035 29.706 76.5049 29.706C75.9064 29.706 75.3323 29.9438 74.909 30.3671C74.4857 30.7903 74.2479 31.3644 74.2479 31.963C74.2479 32.5616 74.4857 33.1357 74.909 33.5589C75.3323 33.9822 75.9064 34.22 76.5049 34.22ZM83.3399 30.274C83.7757 30.2816 84.2086 30.2023 84.6134 30.0409C85.0182 29.8794 85.3868 29.6389 85.6976 29.3334C86.0085 29.0279 86.2554 28.6636 86.4239 28.2617C86.5924 27.8598 86.6792 27.4283 86.6792 26.9925C86.6792 26.5567 86.5924 26.1252 86.4239 25.7233C86.2554 25.3214 86.0085 24.9571 85.6976 24.6516C85.3868 24.3461 85.0182 24.1056 84.6134 23.9441C84.2086 23.7826 83.7757 23.7034 83.3399 23.711C82.4796 23.726 81.6595 24.0783 81.0563 24.6921C80.4532 25.3059 80.1152 26.132 80.1152 26.9925C80.1152 27.853 80.4532 28.6791 81.0563 29.2929C81.6595 29.9066 82.4796 30.259 83.3399 30.274ZM75.7739 26.298C76.4456 26.298 77.0898 26.0312 77.5647 25.5562C78.0396 25.0813 78.3064 24.4372 78.3064 23.7655C78.3064 23.0938 78.0396 22.4497 77.5647 21.9747C77.0898 21.4998 76.4456 21.233 75.7739 21.233C75.1023 21.233 74.4581 21.4998 73.9832 21.9747C73.5083 22.4497 73.2414 23.0938 73.2414 23.7655C73.2414 24.4372 73.5083 25.0813 73.9832 25.5562C74.4581 26.0312 75.1023 26.298 75.7739 26.298ZM82.5949 21.04C83.6006 21.04 84.5652 20.6405 85.2763 19.9293C85.9874 19.2182 86.3869 18.2537 86.3869 17.248C86.3869 16.2423 85.9874 15.2778 85.2763 14.5666C84.5652 13.8555 83.6006 13.456 82.5949 13.456C81.6 13.4722 80.6514 13.8787 79.9535 14.588C79.2556 15.2973 78.8645 16.2525 78.8645 17.2475C78.8645 18.2425 79.2556 19.1977 79.9535 19.907C80.6514 20.6163 81.6 21.0228 82.5949 21.039V21.04ZM81.3899 45.734C81.9885 45.734 82.5626 45.4962 82.9859 45.0729C83.4092 44.6497 83.6469 44.0756 83.6469 43.477C83.6469 42.8784 83.4092 42.3043 82.9859 41.8811C82.5626 41.4578 81.9885 41.22 81.3899 41.22C80.7914 41.22 80.2173 41.4578 79.794 41.8811C79.3707 42.3043 79.1329 42.8784 79.1329 43.477C79.1329 44.0756 79.3707 44.6497 79.794 45.0729C80.2173 45.4962 80.7914 45.734 81.3899 45.734ZM89.6099 44.786C90.0457 44.7936 90.4786 44.7143 90.8834 44.5529C91.2882 44.3914 91.6568 44.1509 91.9676 43.8454C92.2785 43.5399 92.5254 43.1756 92.6939 42.7737C92.8624 42.3718 92.9492 41.9403 92.9492 41.5045C92.9492 41.0687 92.8624 40.6372 92.6939 40.2353C92.5254 39.8334 92.2785 39.4691 91.9676 39.1636C91.6568 38.8581 91.2882 38.6176 90.8834 38.4561C90.4786 38.2946 90.0457 38.2154 89.6099 38.223C88.7496 38.238 87.9295 38.5903 87.3263 39.2041C86.7232 39.8179 86.3852 40.644 86.3852 41.5045C86.3852 42.365 86.7232 43.1911 87.3263 43.8049C87.9295 44.4186 88.7496 44.771 89.6099 44.786ZM83.8499 38.156C84.5216 38.156 85.1658 37.8892 85.6407 37.4142C86.1156 36.9393 86.3824 36.2952 86.3824 35.6235C86.3824 34.9518 86.1156 34.3077 85.6407 33.8327C85.1658 33.3578 84.5216 33.091 83.8499 33.091C83.1783 33.091 82.5341 33.3578 82.0592 33.8327C81.5843 34.3077 81.3174 34.9518 81.3174 35.6235C81.3174 36.2952 81.5843 36.9393 82.0592 37.4142C82.5341 37.8892 83.1783 38.156 83.8499 38.156ZM92.6469 36.007C93.15 36.0152 93.6497 35.9231 94.1169 35.7363C94.584 35.5494 95.0094 35.2714 95.368 34.9185C95.7267 34.5656 96.0115 34.1449 96.206 33.6808C96.4004 33.2168 96.5005 32.7187 96.5005 32.2155C96.5005 31.7123 96.4004 31.2142 96.206 30.7501C96.0115 30.2861 95.7267 29.8653 95.368 29.5125C95.0094 29.1596 94.584 28.8816 94.1169 28.6947C93.6497 28.5079 93.15 28.4158 92.6469 28.424C91.652 28.4402 90.7034 28.8467 90.0055 29.556C89.3076 30.2653 88.9165 31.2205 88.9165 32.2155C88.9165 33.2105 89.3076 34.1657 90.0055 34.875C90.7034 35.5843 91.652 35.9908 92.6469 36.007ZM81.4929 58.242C82.0915 58.242 82.6656 58.0042 83.0889 57.5809C83.5122 57.1577 83.7499 56.5836 83.7499 55.985C83.7499 55.3864 83.5122 54.8123 83.0889 54.3891C82.6656 53.9658 82.0915 53.728 81.4929 53.728C80.8943 53.728 80.3203 53.9658 79.897 54.3891C79.4737 54.8123 79.2359 55.3864 79.2359 55.985C79.2359 56.5836 79.4737 57.1577 79.897 57.5809C80.3203 58.0042 80.8943 58.242 81.4929 58.242ZM89.8439 60.59C90.7144 60.59 91.5492 60.2442 92.1647 59.6287C92.7802 59.0132 93.1259 58.1784 93.1259 57.308C93.1259 56.4376 92.7802 55.6028 92.1647 54.9873C91.5492 54.3718 90.7144 54.026 89.8439 54.026C88.9836 54.041 88.1635 54.3933 87.5603 55.0071C86.9572 55.6209 86.6192 56.447 86.6192 57.3075C86.6192 58.168 86.9572 58.9941 87.5603 59.6079C88.1635 60.2216 88.9836 60.575 89.8439 60.59ZM86.7739 52.203C87.4456 52.203 88.0898 51.9362 88.5647 51.4612C89.0396 50.9863 89.3064 50.3422 89.3064 49.6705C89.3064 48.9988 89.0396 48.3547 88.5647 47.8797C88.0898 47.4048 87.4456 47.138 86.7739 47.138C86.1023 47.138 85.4581 47.4048 84.9832 47.8797C84.5083 48.3547 84.2414 48.9988 84.2414 49.6705C84.2414 50.3422 84.5083 50.9863 84.9832 51.4612C85.4581 51.9362 86.1023 52.203 86.7739 52.203ZM96.2079 53.679C97.2136 53.679 98.1782 53.2795 98.8893 52.5683C99.6004 51.8572 99.9999 50.8927 99.9999 49.887C99.9999 48.8813 99.6004 47.9168 98.8893 47.2056C98.1782 46.4945 97.2136 46.095 96.2079 46.095C95.2022 46.095 94.2377 46.4945 93.5266 47.2056C92.8155 47.9168 92.4159 48.8813 92.4159 49.887C92.4159 50.8927 92.8155 51.8572 93.5266 52.5683C94.2377 53.2795 95.2022 53.679 96.2079 53.679ZM76.8029 69.843C77.0993 69.843 77.3928 69.7846 77.6667 69.6712C77.9405 69.5578 78.1893 69.3915 78.3989 69.1819C78.6085 68.9724 78.7747 68.7235 78.8881 68.4497C79.0016 68.1759 79.0599 67.8824 79.0599 67.586C79.0599 67.2896 79.0016 66.9961 78.8881 66.7223C78.7747 66.4485 78.6085 66.1996 78.3989 65.9901C78.1893 65.7805 77.9405 65.6142 77.6667 65.5008C77.3928 65.3874 77.0993 65.329 76.8029 65.329C76.2044 65.329 75.6303 65.5668 75.207 65.9901C74.7837 66.4133 74.5459 66.9874 74.5459 67.586C74.5459 68.1846 74.7837 68.7587 75.207 69.1819C75.6303 69.6052 76.2044 69.843 76.8029 69.843ZM84.0119 75.282C84.4477 75.2896 84.8806 75.2104 85.2854 75.0489C85.6902 74.8874 86.0588 74.6469 86.3696 74.3414C86.6805 74.0359 86.9274 73.6716 87.0959 73.2697C87.2644 72.8678 87.3512 72.4363 87.3512 72.0005C87.3512 71.5647 87.2644 71.1332 87.0959 70.7313C86.9274 70.3294 86.6805 69.9651 86.3696 69.6596C86.0588 69.3541 85.6902 69.1136 85.2854 68.9521C84.8806 68.7907 84.4477 68.7114 84.0119 68.719C83.1516 68.734 82.3315 69.0864 81.7283 69.7001C81.1252 70.3139 80.7872 71.14 80.7872 72.0005C80.7872 72.861 81.1252 73.6871 81.7283 74.3009C82.3315 74.9146 83.1516 75.267 84.0119 75.282ZM84.1019 66.304C84.7736 66.304 85.4178 66.0372 85.8927 65.5622C86.3676 65.0873 86.6344 64.4432 86.6344 63.7715C86.6344 63.0998 86.3676 62.4557 85.8927 61.9807C85.4178 61.5058 84.7736 61.239 84.1019 61.239C83.4303 61.239 82.7861 61.5058 82.3112 61.9807C81.8363 62.4557 81.5695 63.0998 81.5695 63.7715C81.5695 64.4432 81.8363 65.0873 82.3112 65.5622C82.7861 66.0372 83.4303 66.304 84.1019 66.304ZM92.7329 71.373C93.236 71.3812 93.7357 71.2891 94.2029 71.1023C94.67 70.9154 95.0953 70.6374 95.454 70.2845C95.8127 69.9316 96.0975 69.5109 96.292 69.0468C96.4864 68.5828 96.5865 68.0847 96.5865 67.5815C96.5865 67.0783 96.4864 66.5802 96.292 66.1161C96.0975 65.6521 95.8127 65.2314 95.454 64.8785C95.0953 64.5256 94.67 64.2476 94.2029 64.0607C93.7357 63.8739 93.236 63.7818 92.7329 63.79C91.738 63.8062 90.7894 64.2127 90.0915 64.922C89.3936 65.6313 89.0025 66.5865 89.0025 67.5815C89.0025 68.5765 89.3936 69.5317 90.0915 70.241C90.7894 70.9503 91.738 71.3568 92.7329 71.373ZM68.0369 78.762C68.6355 78.762 69.2096 78.5242 69.6329 78.1009C70.0562 77.6777 70.2939 77.1036 70.2939 76.505C70.2939 75.9064 70.0562 75.3323 69.6329 74.9091C69.2096 74.4858 68.6355 74.248 68.0369 74.248C67.4384 74.248 66.8643 74.4858 66.441 74.9091C66.0177 75.3323 65.7799 75.9064 65.7799 76.505C65.7799 77.1036 66.0177 77.6777 66.441 78.1009C66.8643 78.5242 67.4384 78.762 68.0369 78.762ZM73.007 86.62C73.4446 86.6308 73.8801 86.5539 74.2876 86.3939C74.6951 86.2339 75.0665 85.9939 75.3799 85.6882C75.6932 85.3825 75.9423 85.0171 76.1123 84.6137C76.2824 84.2102 76.37 83.7768 76.37 83.339C76.37 82.9012 76.2824 82.4678 76.1123 82.0643C75.9423 81.6609 75.6932 81.2955 75.3799 80.9898C75.0665 80.6841 74.6951 80.4441 74.2876 80.2841C73.8801 80.1241 73.4446 80.0472 73.007 80.058C72.1466 80.073 71.3265 80.4253 70.7233 81.0391C70.1202 81.6529 69.7822 82.479 69.7822 83.3395C69.7822 84.2 70.1202 85.0261 70.7233 85.6399C71.3265 86.2537 72.1466 86.605 73.007 86.62ZM76.2349 78.306C76.9065 78.306 77.5505 78.0392 78.0253 77.5644C78.5002 77.0895 78.7669 76.4455 78.7669 75.774C78.7669 75.1025 78.5002 74.4584 78.0253 73.9836C77.5505 73.5088 76.9065 73.242 76.2349 73.242C75.5634 73.242 74.9194 73.5088 74.4445 73.9836C73.9697 74.4584 73.7029 75.1025 73.7029 75.774C73.7029 76.4455 73.9697 77.0895 74.4445 77.5644C74.9194 78.0392 75.5634 78.306 76.2349 78.306ZM82.7529 86.386C83.256 86.3942 83.7557 86.3021 84.2229 86.1153C84.69 85.9284 85.1154 85.6504 85.474 85.2975C85.8327 84.9446 86.1175 84.5239 86.312 84.0598C86.5064 83.5958 86.6065 83.0977 86.6065 82.5945C86.6065 82.0913 86.5064 81.5932 86.312 81.1292C86.1175 80.6651 85.8327 80.2443 85.474 79.8915C85.1154 79.5386 84.69 79.2606 84.2229 79.0737C83.7557 78.8869 83.256 78.7948 82.7529 78.803C81.758 78.8192 80.8093 79.2257 80.1115 79.935C79.4136 80.6443 79.0225 81.5995 79.0225 82.5945C79.0225 83.5895 79.4136 84.5447 80.1115 85.254C80.8093 85.9633 81.758 86.3698 82.7529 86.386ZM56.5179 83.646C57.1165 83.646 57.6906 83.4082 58.1139 82.9849C58.5372 82.5617 58.7749 81.9876 58.7749 81.389C58.7749 80.7904 58.5372 80.2163 58.1139 79.7931C57.6906 79.3698 57.1165 79.132 56.5179 79.132C55.9194 79.132 55.3453 79.3698 54.922 79.7931C54.4987 80.2163 54.2609 80.7904 54.2609 81.389C54.2609 81.9876 54.4987 82.5617 54.922 82.9849C55.3453 83.4082 55.9194 83.646 56.5179 83.646ZM58.4949 92.89C58.9307 92.8976 59.3636 92.8183 59.7684 92.6569C60.1732 92.4954 60.5418 92.2549 60.8526 91.9494C61.1635 91.6439 61.4104 91.2796 61.5789 90.8777C61.7474 90.4758 61.8342 90.0443 61.8342 89.6085C61.8342 89.1727 61.7474 88.7412 61.5789 88.3393C61.4104 87.9374 61.1635 87.5731 60.8526 87.2676C60.5418 86.9621 60.1732 86.7216 59.7684 86.5601C59.3636 86.3986 58.9307 86.3194 58.4949 86.327C57.6245 86.327 56.7897 86.6728 56.1742 87.2883C55.5587 87.9038 55.2129 88.7386 55.2129 89.609C55.2129 90.4794 55.5587 91.3142 56.1742 91.9297C56.7897 92.5452 57.6245 92.89 58.4949 92.89ZM64.3769 86.382C65.0486 86.382 65.6928 86.1152 66.1677 85.6403C66.6426 85.1653 66.9094 84.5212 66.9094 83.8495C66.9094 83.1778 66.6426 82.5337 66.1677 82.0588C65.6928 81.5838 65.0486 81.317 64.3769 81.317C63.7053 81.317 63.0611 81.5838 62.5862 82.0588C62.1113 82.5337 61.8444 83.1778 61.8444 83.8495C61.8444 84.5212 62.1113 85.1653 62.5862 85.6403C63.0611 86.1152 63.7053 86.382 64.3769 86.382ZM67.785 96.439C68.7907 96.439 69.7552 96.0395 70.4663 95.3283C71.1774 94.6172 71.577 93.6527 71.577 92.647C71.577 91.6413 71.1774 90.6768 70.4663 89.9657C69.7552 89.2545 68.7907 88.855 67.785 88.855C66.7792 88.855 65.8147 89.2545 65.1036 89.9657C64.3925 90.6768 63.9929 91.6413 63.9929 92.647C63.9929 93.6527 64.3925 94.6172 65.1036 95.3283C65.8147 96.0395 66.7792 96.439 67.785 96.439Z" fill="#96F609"/>
</g>
<defs>
<clipPath id="clip0_24_2">
<rect width="100" height="100" fill="white"/>
</clipPath>
</defs>
</svg>
