<svg width="14" height="14" viewBox="0 0 14 14" fill="none" xmlns="http://www.w3.org/2000/svg">
<g clip-path="url(#clip0_10_30)">
<path d="M11.204 4.57582H10.0168C9.87844 4.57582 9.74684 4.51646 9.65528 4.41314L9.17368 3.8691C9.102 3.7879 8.99868 3.7417 8.8906 3.7417C8.78252 3.7417 8.6792 3.78818 8.60752 3.8691L8.19452 4.33586C8.05928 4.48846 7.86524 4.5761 7.6614 4.5761H1.16288C0.9778 5.10362 0.85712 5.66082 0.80896 6.23874H6.94376C7.05156 6.23874 7.15488 6.19478 7.22936 6.11694L7.80056 5.52082C7.87196 5.44634 7.97052 5.40434 8.07356 5.40434H8.09708C8.20544 5.40434 8.30848 5.45082 8.38016 5.53202L8.86148 6.07606C8.95304 6.17966 9.08464 6.23874 9.22296 6.23874H14.2305C14.1823 5.66054 14.0616 5.10334 13.8766 4.5761H11.2037L11.204 4.57582Z" fill="white"/>
<path d="M4.52149 9.73479C4.62929 9.73479 4.73261 9.69083 4.80709 9.61299L5.37829 9.01687C5.44969 8.94239 5.54825 8.90039 5.65129 8.90039H5.67481C5.78317 8.90039 5.88621 8.94687 5.95789 9.02779L6.43921 9.57183C6.53077 9.67543 6.66237 9.73451 6.80069 9.73451H13.5868C13.841 9.20923 14.0272 8.64559 14.1381 8.05507H7.62445C7.48613 8.05507 7.35453 7.99571 7.26297 7.89239L6.78165 7.34835C6.70997 7.26715 6.60665 7.22095 6.49857 7.22095C6.39049 7.22095 6.28717 7.26743 6.21549 7.34835L5.80249 7.81511C5.66725 7.96771 5.47321 8.05535 5.26909 8.05535H0.901367C1.01225 8.64587 1.19873 9.20951 1.45269 9.73479H4.52121H4.52149Z" fill="white"/>
<path d="M9.33576 2.7586C9.44356 2.7586 9.54688 2.71464 9.62136 2.6368L10.1926 2.04068C10.264 1.9662 10.3625 1.9242 10.4656 1.9242H10.4891C10.5974 1.9242 10.7005 1.97068 10.7722 2.05188L11.2535 2.59592C11.345 2.69952 11.4766 2.7586 11.615 2.7586H12.9055C11.6766 1.12508 9.72188 0.0683594 7.51996 0.0683594C5.31804 0.0683594 3.36336 1.12508 2.13416 2.7586H9.33576Z" fill="white"/>
<path d="M6.74346 11.3991H4.97863C4.84031 11.3991 4.7087 11.3397 4.61715 11.2364L4.13583 10.6923C4.06415 10.6111 3.96083 10.5649 3.85275 10.5649C3.74467 10.5649 3.64135 10.6114 3.56967 10.6923L3.15667 11.1591C3.02143 11.3117 2.82739 11.3993 2.62327 11.3993H2.59583C3.82531 12.7167 5.57614 13.5413 7.52018 13.5413C9.46422 13.5413 11.2148 12.7167 12.4445 11.3993H6.74346V11.3991Z" fill="white"/>
</g>
<defs>
<clipPath id="clip0_10_30">
<rect width="14" height="14" fill="white"/>
</clipPath>
</defs>
</svg>
