<svg width="1000" height="246" viewBox="0 0 1000 246" fill="none" xmlns="http://www.w3.org/2000/svg">
<path d="M764.21 82.72H743.66C741.27 82.72 738.99 81.69 737.4 79.9L729.07 70.49C727.83 69.09 726.04 68.28 724.17 68.28C722.3 68.28 720.51 69.08 719.27 70.49L712.12 78.57C709.78 81.21 706.42 82.73 702.89 82.73H590.43C587.23 91.86 585.14 101.5 584.31 111.51H690.48C692.35 111.51 694.13 110.75 695.42 109.4L705.31 99.09C706.54 97.8 708.25 97.07 710.03 97.07H710.44C712.31 97.07 714.1 97.87 715.34 99.28L723.67 108.69C725.26 110.48 727.53 111.51 729.93 111.51H816.59C815.76 101.5 813.67 91.86 810.47 82.73H764.21V82.72Z" fill="white"/>
<path d="M648.57 172C650.44 172 652.22 171.24 653.51 169.89L663.4 159.58C664.63 158.29 666.34 157.56 668.12 157.56H668.53C670.4 157.56 672.19 158.36 673.43 159.77L681.76 169.18C683.35 170.97 685.62 172 688.02 172H805.46C809.86 162.91 813.08 153.15 815 142.94H702.28C699.89 142.94 697.61 141.91 696.02 140.12L687.69 130.71C686.45 129.31 684.66 128.5 682.79 128.5C680.92 128.5 679.13 129.3 677.89 130.71L670.74 138.79C668.4 141.43 665.04 142.95 661.51 142.95H585.92C587.84 153.17 591.06 162.92 595.46 172.01H648.57V172Z" fill="white"/>
<path d="M731.88 51.28C733.75 51.28 735.53 50.52 736.82 49.17L746.71 38.86C747.94 37.57 749.65 36.84 751.43 36.84H751.84C753.71 36.84 755.5 37.64 756.74 39.05L765.07 48.46C766.66 50.25 768.93 51.28 771.33 51.28H793.66C772.39 23.01 738.56 4.72 700.46 4.72C662.36 4.72 628.53 23.01 607.26 51.28H731.89H731.88Z" fill="white"/>
<path d="M687.02 200.81H656.48C654.09 200.81 651.81 199.78 650.22 197.99L641.89 188.58C640.65 187.18 638.86 186.37 636.99 186.37C635.12 186.37 633.33 187.17 632.09 188.58L624.94 196.66C622.6 199.3 619.24 200.82 615.71 200.82H615.23C636.51 223.62 666.8 237.89 700.45 237.89C734.1 237.89 764.39 223.62 785.67 200.82H687.02V200.81Z" fill="white"/>
<path d="M185.1 230.35L161.38 172.74H55.41L31.69 230.35H4.26999L108.24 12.25L212.52 230.35H185.1ZM64.34 150.87H152.14L108.1 57.95L64.35 150.87H64.34Z" fill="white"/>
<path d="M250.39 230.35V12.25H311.08C358.52 12.25 383.47 34.12 383.47 75.09C383.47 116.06 356.98 137.32 310.77 137.32H275.96V230.35H250.39ZM275.96 114.52H304.92C341.58 114.52 357.6 102.51 357.6 75.09C357.6 47.67 341.27 35.04 304.92 35.04H275.96V114.52Z" fill="white"/>
<path d="M476.34 35.66H401.18V12.25H577.08V35.66H501.91V230.35H476.34V35.66Z" fill="white"/>
<path d="M852.59 190.61L874.61 175.67L876.31 179.21C889.86 203.85 904.65 213.71 927.14 213.71C952.09 213.71 969.65 196.46 969.65 175.51C969.65 155.79 959.79 142.55 920.36 126.22C875.08 107.43 859.67 88.02 859.67 60.3C859.67 30.11 883.39 6.39 924.36 6.39C954.55 6.39 975.19 19.33 986.9 40.28L969.03 52.6L963.79 51.37C954.55 36.89 943.15 28.57 923.74 28.57C900.02 28.57 886.16 41.82 886.16 59.68C886.16 76.31 895.09 85.86 933.6 103.42C983.81 126.22 996.14 145.01 996.14 175.2C996.14 208.16 967.8 236.19 927.44 236.19C893.55 236.19 870.14 223.25 852.58 190.6L852.59 190.61Z" fill="white"/>
</svg>
