<svg width="1252" height="319" viewBox="0 0 1252 319" fill="none" xmlns="http://www.w3.org/2000/svg">
<g clip-path="url(#clip0_5_81)">
<path d="M10.6942 96.9593V222.041C10.6942 230.001 14.9327 237.374 21.8448 241.354L130.091 303.862C137.003 307.843 145.48 307.843 152.392 303.862L260.638 241.354C267.55 237.374 271.788 230.001 271.788 222.041V96.9593C271.788 88.999 267.55 81.6259 260.638 77.6457L152.392 15.1376C145.48 11.1575 137.003 11.1575 130.091 15.1376L21.8448 77.6457C14.9979 81.6259 10.6942 88.999 10.6942 96.9593Z" fill="black"/>
<path d="M164.912 183.74L149.458 226.086C149.001 227.261 149.001 228.566 149.458 229.74L175.997 302.623L206.71 284.875L169.868 183.74C169.02 181.391 165.76 181.391 164.912 183.74Z" fill="white"/>
<path d="M195.821 112.488C194.973 110.14 191.713 110.14 190.865 112.488L175.41 154.835C174.954 156.009 174.954 157.314 175.41 158.489L218.904 277.828L249.618 260.081L195.821 112.488Z" fill="white"/>
<path d="M141.241 19.7703C142.024 19.7703 142.741 19.966 143.458 20.3575L260.573 88.0202C261.942 88.8032 262.79 90.2387 262.79 91.8047V227.13C262.79 228.696 261.942 230.132 260.573 230.915L143.458 298.642C142.806 299.034 142.024 299.23 141.241 299.23C140.459 299.23 139.741 299.034 139.024 298.642L21.9752 230.98C20.6058 230.197 19.7581 228.761 19.7581 227.195V91.8047C19.7581 90.2387 20.6058 88.8032 21.9752 88.0202L139.089 20.3575C139.741 19.966 140.524 19.7703 141.241 19.7703ZM141.241 0C137.068 0 132.895 1.10922 129.178 3.26243L12.0635 70.9251C4.62979 75.2315 0 83.1919 0 91.8047V227.13C0 235.743 4.62979 243.768 12.0635 248.075L129.178 315.738C132.895 317.891 137.068 319 141.241 319C145.415 319 149.588 317.891 153.305 315.738L270.419 248.075C277.918 243.768 282.483 235.808 282.483 227.13V91.8047C282.483 83.1919 277.853 75.1663 270.419 70.8599L153.37 3.26243C149.588 1.10922 145.415 0 141.241 0Z" fill="white"/>
<path d="M63.839 277.959L74.5984 248.466L96.2475 266.475L76.0329 285.005L63.839 277.959Z" fill="#213147"/>
<path d="M131.395 82.1479H101.725C99.5079 82.1479 97.4865 83.5181 96.7692 85.6061L33.1259 260.211L63.839 277.959L133.938 85.6713C134.525 83.9748 133.286 82.1479 131.395 82.1479Z" fill="white"/>
<path d="M183.366 82.1479H153.696C151.479 82.1479 149.458 83.5181 148.74 85.6061L76.033 285.006L106.746 302.753L185.844 85.7366C186.496 83.9748 185.192 82.1479 183.366 82.1479Z" fill="white"/>
<path d="M408.921 118.491C411.856 118.491 414.399 119.079 416.42 120.318C418.442 121.558 420.463 123.907 422.42 127.43L461.153 197.768C461.545 198.551 461.61 199.204 461.414 199.726C461.219 200.248 460.632 200.509 459.719 200.509H444.851C443.547 200.509 442.634 199.987 442.178 199.008L433.896 183.936H378.926L370.84 199.008C370.318 200.052 369.405 200.509 368.166 200.509H352.973C351.929 200.509 351.342 200.248 351.147 199.726C350.951 199.204 351.016 198.551 351.408 197.768L389.815 127.43C391.772 123.907 393.663 121.558 395.554 120.318C397.445 119.079 399.597 118.491 402.075 118.491H408.921ZM386.164 170.233H426.462L407.878 135.913C407.552 135.391 407.161 135.064 406.574 135.064H405.857C405.335 135.064 404.879 135.325 404.552 135.913L386.164 170.233Z" fill="white"/>
<path d="M546.25 118.491C555.249 118.491 561.639 120.514 565.552 124.559C569.464 128.605 571.421 134.608 571.421 142.568V149.223C571.421 155.944 570.051 161.229 567.312 165.144C564.574 169.059 560.14 171.538 553.945 172.648L573.964 197.442C574.355 197.834 574.485 198.421 574.29 199.204C574.159 199.987 573.507 200.378 572.399 200.378H557.336C556.292 200.378 555.64 200.248 555.249 200.052C554.858 199.791 554.466 199.399 554.075 198.877L535.556 174.54H497.735V197.834C497.735 199.53 496.888 200.378 495.192 200.378H482.542C480.716 200.378 479.868 199.53 479.868 197.834V122.015C479.868 119.666 481.042 118.491 483.389 118.491H546.25ZM497.8 160.316H542.599C546.576 160.316 549.38 159.467 551.01 157.771C552.641 156.074 553.488 153.465 553.488 149.941V145.047C553.488 141.524 552.641 138.914 551.01 137.218C549.38 135.521 546.576 134.673 542.599 134.673H499.3C498.257 134.673 497.8 135.13 497.8 136.108V160.316Z" fill="white"/>
<path d="M669.298 118.491C677.319 118.491 683.057 120.123 686.448 123.32C689.839 126.517 691.534 131.345 691.534 137.805V143.416C691.534 149.941 689.056 154.9 684.035 158.293C689.383 161.425 692.121 166.449 692.121 173.365V180.151C692.121 183.283 691.795 186.089 691.078 188.568C690.361 191.048 689.252 193.201 687.622 194.963C685.992 196.724 683.905 198.095 681.231 199.008C678.558 199.921 675.297 200.443 671.385 200.443H601.873C599.525 200.443 598.352 199.269 598.352 196.92V122.015C598.352 119.666 599.525 118.491 601.873 118.491H669.298ZM616.284 152.551H664.277C668.19 152.551 670.798 151.964 672.233 150.789C673.667 149.615 674.319 147.918 674.319 145.635V141.655C674.319 139.24 673.667 137.479 672.298 136.304C670.929 135.195 668.711 134.608 665.712 134.608H617.849C616.806 134.608 616.349 135.13 616.349 136.108V152.551H616.284ZM616.284 165.34V182.761C616.284 183.805 616.806 184.262 617.784 184.262H665.777C668.907 184.262 671.124 183.675 672.428 182.565C673.732 181.456 674.45 179.629 674.45 177.15V172.713C674.45 170.299 673.733 168.472 672.298 167.232C670.863 165.992 668.19 165.34 664.277 165.34H616.284Z" fill="white"/>
<path d="M735.746 118.491C737.441 118.491 738.289 119.34 738.289 121.036V197.834C738.289 199.53 737.441 200.378 735.746 200.378H723.095C721.269 200.378 720.422 199.53 720.422 197.834V121.101C720.422 119.405 721.335 118.557 723.095 118.557L735.746 118.491Z" fill="white"/>
<path d="M858.337 118.491C860.163 118.491 861.011 119.34 861.011 121.036V132.52C861.011 134.347 860.098 135.195 858.337 135.195H821.625V197.834C821.625 199.53 820.777 200.378 819.082 200.378H806.301C804.606 200.378 803.758 199.53 803.758 197.834V135.195H767.046C765.22 135.195 764.372 134.281 764.372 132.52V121.036C764.372 119.34 765.285 118.491 767.046 118.491H858.337Z" fill="white"/>
<path d="M950.868 118.491C959.867 118.491 966.257 120.514 970.17 124.559C974.082 128.605 976.038 134.608 976.038 142.568V149.223C976.038 155.944 974.669 161.229 971.93 165.144C969.191 169.059 964.757 171.538 958.562 172.648L978.581 197.442C978.973 197.834 979.103 198.421 978.907 199.204C978.777 199.987 978.125 200.378 977.016 200.378H961.953C960.91 200.378 960.258 200.248 959.867 200.052C959.475 199.791 959.084 199.399 958.693 198.877L940.174 174.54H902.353V197.834C902.353 199.53 901.505 200.378 899.81 200.378H887.159C885.334 200.378 884.486 199.53 884.486 197.834V122.015C884.486 119.666 885.66 118.491 888.007 118.491H950.868ZM902.483 160.316H947.281C951.259 160.316 954.063 159.467 955.693 157.771C957.324 156.074 958.171 153.465 958.171 149.941V145.047C958.171 141.524 957.324 138.914 955.693 137.218C954.063 135.521 951.259 134.673 947.281 134.673H903.983C902.94 134.673 902.483 135.13 902.483 136.108V160.316Z" fill="white"/>
<path d="M1016.66 118.491C1018.36 118.491 1019.21 119.34 1019.21 121.036V167.754C1019.21 170.886 1019.47 173.496 1019.99 175.519C1020.51 177.606 1021.36 179.238 1022.53 180.412C1023.71 181.652 1025.27 182.5 1027.29 182.957C1029.31 183.479 1031.79 183.74 1034.86 183.74H1067.26C1070.33 183.74 1072.81 183.479 1074.83 182.957C1076.85 182.435 1078.42 181.587 1079.59 180.412C1080.76 179.172 1081.61 177.541 1082.07 175.519C1082.52 173.431 1082.78 170.886 1082.78 167.754V121.036C1082.78 119.34 1083.63 118.491 1085.33 118.491H1098.11C1099.8 118.491 1100.65 119.34 1100.65 121.036V169.516C1100.65 175.127 1100.06 179.89 1098.89 183.87C1097.72 187.785 1095.83 190.982 1093.22 193.462C1090.61 195.941 1087.22 197.703 1083.05 198.812C1078.87 199.921 1073.85 200.443 1067.92 200.443H1034.2C1028.27 200.443 1023.25 199.921 1019.14 198.812C1015.03 197.703 1011.64 195.941 1009.03 193.462C1006.43 190.982 1004.53 187.785 1003.3 183.87C1002.06 179.955 1001.47 175.127 1001.47 169.516V121.036C1001.47 119.34 1002.38 118.491 1004.14 118.491H1016.66Z" fill="white"/>
<path d="M1150.93 118.491C1152.62 118.491 1154.12 118.622 1155.36 118.818C1156.6 119.079 1157.71 119.47 1158.62 120.188C1159.53 120.84 1160.38 121.754 1161.16 122.863C1161.88 123.972 1162.66 125.473 1163.45 127.365L1187.77 183.544C1188.1 184.262 1188.62 184.588 1189.4 184.588H1190.83C1191.62 184.588 1192.14 184.262 1192.46 183.544L1216.79 127.365C1217.57 125.473 1218.35 123.972 1219.07 122.863C1219.79 121.754 1220.63 120.84 1221.61 120.188C1222.53 119.535 1223.63 119.079 1224.81 118.818C1226.05 118.557 1227.48 118.491 1229.18 118.491H1241.7C1245.74 118.491 1248.48 119.405 1249.91 121.232C1251.35 123.059 1252 126.191 1252 130.628V197.834C1252 199.53 1251.09 200.378 1249.33 200.378H1237.39C1235.7 200.378 1234.85 199.53 1234.85 197.834V136.696C1234.85 135.913 1234.52 135.521 1233.94 135.521H1232.89C1232.11 135.521 1231.59 135.847 1231.39 136.435L1207.79 188.894C1206.88 190.982 1205.9 192.809 1204.92 194.245C1203.94 195.68 1202.9 196.855 1201.79 197.834C1200.68 198.747 1199.38 199.465 1197.94 199.856C1196.51 200.248 1194.81 200.443 1192.86 200.443H1187.25C1185.29 200.443 1183.6 200.248 1182.16 199.856C1180.73 199.465 1179.42 198.812 1178.31 197.834C1177.21 196.92 1176.1 195.68 1175.18 194.245C1174.21 192.809 1173.23 191.048 1172.32 188.894L1148.71 136.435C1148.45 135.782 1147.99 135.521 1147.21 135.521H1146.17C1145.51 135.521 1145.25 135.913 1145.25 136.696V197.834C1145.25 199.53 1144.41 200.378 1142.71 200.378H1130.78C1128.95 200.378 1128.1 199.53 1128.1 197.834V130.628C1128.1 126.191 1128.82 123.059 1130.19 121.232C1131.63 119.405 1134.36 118.491 1138.47 118.491H1150.93Z" fill="white"/>
</g>
<defs>
<clipPath id="clip0_5_81">
<rect width="1252" height="319" fill="white"/>
</clipPath>
</defs>
</svg>
