<svg width="1264" height="264" viewBox="0 0 1264 264" fill="none" xmlns="http://www.w3.org/2000/svg">
<g clip-path="url(#clip0_3_60)">
<path d="M260.052 163.815C242.512 234.523 170.953 277.626 100.218 260.091C29.4872 242.56 -13.6302 171.021 3.91006 100.313C21.4504 29.6021 93.0099 -13.5041 163.741 4.03045C163.86 4.06012 163.982 4.0898 164.1 4.12245C234.645 21.8202 277.563 93.2433 260.052 163.815Z" fill="white"/>
<path d="M161.915 112.864C157.791 129.354 132.639 120.901 124.474 118.883L131.689 90.0291C139.729 92.0087 166.039 95.7987 161.791 112.864H161.915ZM157.42 159.49C152.967 177.458 122.702 167.735 112.887 165.299L120.843 133.435C130.659 135.907 162.079 140.73 157.42 159.49ZM190.408 113.114C193.006 95.5524 179.646 86.1144 161.544 79.8491L167.482 56.0641L152.845 52.4373L147.074 75.605C143.279 74.6582 139.363 73.75 135.486 72.8834L141.258 49.4694L126.784 45.8426L120.846 69.6276L111.61 67.5678L91.6116 62.5787L87.7757 78.0387C87.7757 78.0387 98.4965 80.5109 98.2916 80.6771C102.386 81.1728 105.372 84.8085 105.055 88.922L98.2916 116.004C98.7993 116.12 99.2981 116.283 99.7761 116.5L98.25 116.087L88.806 154.053C87.9212 156.831 84.9523 158.36 82.1704 157.475H82.1675C82.1675 157.68 71.6101 154.878 71.6101 154.878L64.4342 171.368L83.2779 176.028L93.5859 178.708L87.6065 202.739L102.08 206.366L108.018 182.581C111.919 183.652 115.758 184.641 119.522 185.549L113.668 209.417L128.141 213.002L134.12 189.012C158.86 193.675 177.374 191.814 185.209 169.475C191.518 151.501 184.88 141.155 171.891 134.394C181.373 132.209 188.386 126.149 190.405 113.123L190.408 113.114Z" fill="black"/>
<path d="M343.553 222.594C351.26 222.618 358.843 220.656 365.573 216.905C372.5 213.213 378.592 208.129 383.47 201.982C388.553 195.482 392.549 188.202 395.304 180.423C398.211 172.386 399.686 163.907 399.674 155.362C400.137 146.693 398.285 138.056 394.312 130.339C390.768 124.362 384.168 121.314 374.602 121.314C370.433 121.456 366.289 122.023 362.23 123.003C357.192 124.128 352.531 126.543 348.704 130.01L326.85 221.357L330.356 222.016C331.398 222.271 332.464 222.437 333.53 222.511C334.899 222.681 336.276 222.749 337.654 222.716L343.55 222.591L343.553 222.594ZM386.973 79.8046C396.518 79.5849 405.995 81.5319 414.682 85.4941C422.223 89.0882 428.85 94.3444 434.063 100.871C439.401 107.62 443.326 115.369 445.609 123.665C448.109 132.812 449.341 142.256 449.279 151.738C449.267 181.239 437.828 209.586 417.363 230.842C407.441 241.016 395.636 249.16 382.603 254.832C368.937 260.845 354.155 263.911 339.224 263.819H328.667C322.928 263.632 317.198 263.139 311.513 262.335C304.568 261.329 297.686 259.955 290.896 258.213C283.777 256.524 276.865 254.063 270.28 250.876L328.216 8.24787L379.967 0.00297546L359.351 86.1144C363.644 84.1734 368.1 82.6152 372.669 81.4577C377.378 80.3121 382.214 79.7422 387.059 79.7689L386.976 79.8105L386.973 79.8046Z" fill="white"/>
<path d="M526.8 62.1187C520.054 62.184 513.478 60.0233 508.078 55.9781C502.354 51.452 499.26 44.3735 499.83 37.0991C499.807 32.5611 500.774 28.0706 502.674 23.9482C504.494 19.9326 507.051 16.2969 510.221 13.231C513.389 10.2215 517.059 7.79377 521.067 6.05754C525.235 4.26788 529.727 3.35672 534.261 3.3775C540.959 3.35672 547.472 5.52925 552.816 9.55969C558.528 14.0947 561.619 21.1672 561.064 28.4387C561.1 32.9885 560.144 37.4908 558.261 41.6281C556.441 45.623 553.897 49.2409 550.756 52.3038C547.597 55.3251 543.927 57.7529 539.91 59.4772C535.742 61.2669 531.25 62.1662 526.717 62.1157H526.8V62.1187ZM502.761 259.118H453.278L495.089 83.5115H544.86L502.758 259.118H502.761Z" fill="white"/>
<path d="M588.158 39.7791L639.906 31.7835L627.042 83.5175H682.466L672.481 124.243H617.515L602.837 185.498C601.566 190.188 600.779 194.996 600.485 199.848C600.182 203.772 600.764 207.713 602.174 211.385C603.555 214.679 606.111 217.341 609.35 218.846C614.011 220.906 619.1 221.844 624.195 221.568C629.414 221.585 634.622 221.072 639.74 220.042C644.891 219.036 649.965 217.659 654.914 215.92L658.625 254.007C651.521 256.559 644.262 258.67 636.893 260.314C627.787 262.246 618.492 263.145 609.184 262.994C593.802 262.994 581.926 260.685 573.432 256.15C565.488 252.111 559.122 245.522 555.373 237.434C551.712 228.854 550.115 219.535 550.714 210.227C551.27 199.308 552.828 188.463 555.373 177.826L588.155 39.6129V39.7791H588.158Z" fill="white"/>
<path d="M680.649 188.998C680.545 174.431 683.027 159.953 687.988 146.253C692.64 133.298 699.786 121.382 709.016 111.176C718.324 101.052 729.641 92.994 742.25 87.5093C756.002 81.5734 770.856 78.6085 785.834 78.8162C794.877 78.7094 803.903 79.6621 812.72 81.6565C820.134 83.4136 827.345 85.9274 834.245 89.1595L817.052 127.784C812.599 125.971 807.979 124.41 803.196 122.961C797.493 121.373 791.588 120.637 785.671 120.777C770.719 120.237 756.338 126.555 746.621 137.925C736.972 149.272 732.129 164.524 732.106 183.682C731.651 193.399 734.216 203.015 739.445 211.221C744.335 218.229 753.357 221.728 766.494 221.728C772.792 221.734 779.068 221.057 785.216 219.71C790.7 218.54 796.074 216.872 801.257 214.721L804.927 254.461C798.182 257.013 791.3 259.189 784.311 260.97C775.437 262.97 766.358 263.914 757.261 263.777C745.187 264.128 733.168 262.095 721.881 257.797C712.909 254.182 704.83 248.656 698.213 241.601C691.933 234.763 687.293 226.583 684.648 217.688C681.848 208.328 680.458 198.602 680.524 188.834L680.649 189V188.998Z" fill="white"/>
<path d="M924.796 120.943C917.82 120.845 911 123.062 905.415 127.25C899.754 131.63 895.004 137.083 891.438 143.286C887.516 149.889 884.571 157.03 882.697 164.479C880.883 171.62 879.939 178.951 879.895 186.32C879.449 195.316 881.281 204.273 885.215 212.373C888.804 218.597 895.235 221.731 904.596 221.731C911.585 221.85 918.413 219.615 923.977 215.382C929.651 211.002 934.41 205.55 937.996 199.353C941.862 192.74 944.736 185.602 946.535 178.159C948.328 171.003 949.272 163.654 949.335 156.27C949.798 147.28 947.96 138.314 944.014 130.218C940.428 124.036 933.953 120.901 924.633 120.901L924.799 120.943H924.796ZM900.057 263.816C889.55 264.059 879.102 262.237 869.296 258.456C861.045 255.203 853.676 250.069 847.771 243.45C841.964 236.784 837.591 228.999 834.907 220.573C831.991 211.126 830.596 201.273 830.783 191.39C830.816 177.779 832.998 164.254 837.261 151.323C841.397 138.308 847.854 126.149 856.307 115.42C864.798 104.694 875.358 95.7779 887.356 89.204C900.27 82.262 914.753 78.7539 929.416 79.021C939.861 78.8311 950.252 80.6534 960.014 84.3811C968.273 87.5805 975.684 92.6468 981.66 99.1792C987.432 105.863 991.796 113.645 994.486 122.056C997.422 131.512 998.814 141.38 998.609 151.281C998.568 164.88 996.439 178.396 992.301 191.348C988.236 204.38 981.897 216.587 973.579 227.417C965.212 238.188 954.693 247.104 942.693 253.594C929.579 260.572 914.91 264.092 900.057 263.816Z" fill="white"/>
<path d="M1076.75 62.1187C1070.01 62.1899 1063.44 60.0293 1058.07 55.9781C1052.34 51.452 1049.25 44.3735 1049.82 37.0991C1049.8 32.5611 1050.77 28.0707 1052.66 23.9482C1054.43 19.9534 1056.92 16.3236 1060 13.231C1063.19 10.2305 1066.87 7.80269 1070.89 6.05755C1075.05 4.27085 1079.52 3.3597 1084.05 3.37751C1090.79 3.31815 1097.38 5.49661 1102.77 9.5597C1108.48 14.0947 1111.57 21.1673 1111.02 28.4387C1111.03 32.9944 1110.04 37.4968 1108.13 41.6281C1106.34 45.6259 1103.8 49.2498 1100.67 52.3038C1097.51 55.3251 1093.84 57.7529 1089.82 59.4772C1085.69 61.2491 1081.24 62.1484 1076.75 62.1157L1076.75 62.1187ZM1052.75 259.118H1003.27L1045 83.5115H1094.81L1052.75 259.118Z" fill="white"/>
<path d="M1130.44 91.5101C1134.19 90.4386 1138.36 89.1179 1142.81 87.6785C1147.26 86.2361 1152.46 84.9153 1158.19 83.556C1164.47 82.2234 1170.82 81.2203 1177.2 80.5465C1185.13 79.7096 1193.1 79.3089 1201.07 79.3505C1227.14 79.3505 1245.11 86.9187 1255.01 102.064C1260.94 111.134 1263.93 122.198 1264.01 135.26V136.201C1263.96 144.695 1262.69 154.023 1260.21 164.183L1237.48 258.99H1187.84L1209.9 166.156C1211.22 160.39 1212.29 154.783 1213.07 149.302C1213.93 144.556 1213.93 139.697 1213.07 134.958C1212.25 130.995 1210.06 127.452 1206.89 124.941C1202.49 122.056 1197.25 120.709 1192 121.106C1185.4 121.118 1178.8 121.795 1172.34 123.127L1139.92 259.156H1089.98L1130.44 91.5101Z" fill="white"/>
</g>
<defs>
<clipPath id="clip0_3_60">
<rect width="1264" height="264" fill="white"/>
</clipPath>
</defs>
</svg>
