<svg width="1238" height="310" viewBox="0 0 1238 310" fill="none" xmlns="http://www.w3.org/2000/svg">
<path d="M448.871 164.401H488.644C494.236 164.401 498.767 168.981 498.767 174.574C498.767 180.215 494.236 184.747 488.644 184.747H440.676C439.905 184.747 439.181 185.036 438.651 185.518L424.189 198.005C421.971 199.933 423.321 203.549 426.213 203.549H486.233C486.233 203.549 486.281 203.549 486.281 203.501C486.281 203.453 486.33 203.453 486.33 203.453C487.101 203.501 487.824 203.549 488.595 203.549C504.504 203.549 517.424 190.58 517.424 174.574C517.424 159.387 505.806 146.9 490.958 145.695C490.958 145.695 490.909 145.695 490.909 145.647C490.909 145.599 490.909 145.599 490.861 145.599H448.052C442.46 145.599 437.928 141.019 437.928 135.426C437.928 129.785 442.46 125.254 448.052 125.254H495.923C496.694 125.254 497.466 124.964 498.044 124.434L511.495 111.947C513.616 109.97 512.218 106.451 509.373 106.451H448.871C448.63 106.451 448.341 106.451 448.1 106.451C432.191 106.451 419.271 119.42 419.271 135.426C419.271 151.432 432.191 164.401 448.1 164.401C448.341 164.401 448.582 164.401 448.871 164.401Z" fill="white"/>
<path d="M680.37 106.403C678.634 106.403 677.236 107.801 677.236 109.585V200.415C677.236 202.151 678.634 203.597 680.37 203.597H753.165C754.033 203.597 754.852 203.212 755.479 202.585L764.59 192.798C766.47 190.773 765.072 187.446 762.276 187.446H698.737C697.002 187.446 695.604 186.048 695.604 184.264V109.537C695.604 107.801 694.206 106.355 692.47 106.355H680.37V106.403Z" fill="white"/>
<path fill-rule="evenodd" clip-rule="evenodd" d="M563.801 106.403C563.801 106.451 563.801 106.451 563.801 106.403C554.497 106.837 547.024 114.309 546.591 123.614V184.698C546.591 184.939 546.591 185.229 546.591 185.47C546.591 195.16 554.207 203.067 563.801 203.453H629.847C639.392 203.019 647.057 195.112 647.057 185.47C647.057 185.229 647.057 184.939 647.057 184.698V123.663C646.672 114.358 639.199 106.837 629.895 106.451H563.801V106.403ZM576.142 123.663C576.094 123.663 576.094 123.663 576.142 123.663C570.309 123.904 565.633 128.628 565.392 134.51V172.935C565.392 173.079 565.392 173.272 565.392 173.417C565.392 179.491 570.165 184.505 576.142 184.747H617.554C623.532 184.505 628.304 179.491 628.304 173.417C628.304 173.272 628.304 173.079 628.304 172.935V134.51C628.063 128.628 623.387 123.952 617.554 123.663H576.142Z" fill="white"/>
<path fill-rule="evenodd" clip-rule="evenodd" d="M870.408 200.415C870.408 202.151 871.807 203.597 873.542 203.597H885.883C887.619 203.597 889.017 202.199 889.017 200.415V125.253C889.017 125.012 889.017 124.723 889.017 124.482C889.017 114.792 881.448 106.885 871.999 106.499H808.605C808.364 106.499 808.075 106.499 807.834 106.499C797.999 106.499 790.045 114.551 790.045 124.53C790.045 124.771 790.045 125.061 790.045 125.302V200.463C790.045 202.199 791.443 203.645 793.178 203.645H805.52C807.255 203.645 808.653 202.247 808.653 200.463V169.174C808.653 167.439 810.051 165.992 811.787 165.992H867.42C869.155 165.992 870.553 167.39 870.553 169.174V200.415H870.408ZM808.557 148.684V133.064C808.557 126.989 813.426 122.072 819.404 122.072H859.61C865.588 122.072 870.457 126.989 870.457 133.064V148.684C870.457 150.42 869.059 151.866 867.323 151.866H811.69C809.955 151.866 808.557 150.468 808.557 148.684Z" fill="white"/>
<path fill-rule="evenodd" clip-rule="evenodd" d="M1130.98 203.597C1129.24 203.597 1127.84 202.199 1127.84 200.415V169.126C1127.84 167.39 1126.44 165.944 1124.71 165.944H1068.45C1066.71 165.944 1065.32 167.342 1065.32 169.126V200.415C1065.32 202.151 1063.92 203.597 1062.18 203.597H1049.74C1048.01 203.597 1046.61 202.199 1046.61 200.415V125.253C1046.61 125.012 1046.61 124.723 1046.61 124.482C1046.61 114.551 1054.66 106.451 1064.59 106.451C1064.83 106.451 1065.12 106.451 1065.36 106.451H1129.43C1138.98 106.885 1146.64 114.792 1146.64 124.434C1146.64 124.675 1146.64 124.964 1146.64 125.205V200.367C1146.64 202.103 1145.25 203.549 1143.51 203.549H1130.98V203.597ZM1065.32 133.064V148.684C1065.32 150.42 1066.71 151.866 1068.45 151.866H1124.71C1126.44 151.866 1127.84 150.468 1127.84 148.684V133.064C1127.84 126.989 1122.93 122.072 1116.9 122.072H1076.26C1070.19 122.072 1065.32 126.989 1065.32 133.064Z" fill="white"/>
<path d="M935.49 106.403C936.406 106.403 937.274 106.788 937.853 107.512L993.196 173.513C995.076 175.731 998.692 174.381 998.692 171.44V109.585C998.692 107.849 1000.09 106.403 1001.83 106.403H1014.17C1015.9 106.403 1017.3 107.801 1017.3 109.585V200.415C1017.3 202.151 1015.9 203.597 1014.17 203.597H998.837C998.788 203.597 998.74 203.549 998.74 203.501C998.74 203.453 998.74 203.453 998.692 203.404L942.384 137.885C940.504 135.667 936.888 137.065 936.888 139.958V200.463C936.888 202.199 935.49 203.645 933.755 203.645H921.317C919.581 203.645 918.183 202.247 918.183 200.463V109.585C918.183 107.849 919.581 106.403 921.317 106.403H935.49Z" fill="white"/>
<path d="M132.285 206.924C133.827 205.381 135.9 204.513 138.07 204.513H338.859C342.523 204.513 344.355 208.949 341.752 211.504L302.076 251.182C300.533 252.725 298.46 253.593 296.291 253.593H95.5015C91.8377 253.593 90.0057 249.157 92.609 246.602L132.285 206.924Z" fill="white"/>
<path d="M132.285 58.818C133.827 57.2753 135.9 56.4075 138.07 56.4075H338.859C342.523 56.4075 344.355 60.8429 341.752 63.3981L302.076 103.028C300.533 104.571 298.46 105.439 296.291 105.439H95.5015C91.8377 105.439 90.0057 101.003 92.609 98.4479L132.285 58.818Z" fill="white"/>
<path d="M302.076 132.389C300.533 130.846 298.46 129.978 296.291 129.978H95.5015C91.8377 129.978 90.0057 134.414 92.609 136.969L132.285 176.599C133.827 178.142 135.9 179.009 138.07 179.009H338.859C342.523 179.009 344.355 174.574 341.752 172.019L302.076 132.389Z" fill="white"/>
</svg>
