<svg width="1368" height="409" viewBox="0 0 1368 409" fill="none" xmlns="http://www.w3.org/2000/svg">
<path d="M452.532 234.713C453.433 245.946 458.113 254.86 466.395 261.635C474.676 268.41 485.478 271.798 498.801 271.798C510.503 271.798 519.864 269.301 527.066 264.31C534.267 259.317 537.868 252.364 537.868 243.628C537.868 237.388 535.887 232.217 531.926 228.652C527.966 224.908 522.745 222.055 515.903 220.094C509.062 218.132 499.701 215.993 487.459 213.854C475.036 211.714 464.414 208.861 455.593 205.296C446.771 201.73 439.57 196.381 433.989 189.25C428.408 181.94 425.707 172.49 425.707 160.723C425.707 149.848 428.588 140.22 434.349 131.662C440.11 123.104 448.031 116.507 458.474 111.872C468.735 107.236 480.617 104.74 493.94 104.74C507.622 104.74 519.864 107.236 530.666 112.407C541.468 117.399 549.929 124.352 556.052 133.267C562.174 142.181 565.594 152.165 566.132 163.576H535.167C534.087 153.77 529.766 145.925 522.385 140.042C514.824 134.159 505.462 131.127 493.94 131.127C482.778 131.127 473.956 133.445 467.295 138.259C460.634 143.073 457.393 149.848 457.393 158.405C457.393 164.467 459.373 169.46 463.334 173.026C467.295 176.591 472.516 179.265 478.997 181.227C485.478 183.01 495.02 184.971 507.262 187.11C519.685 189.25 530.306 192.102 539.308 195.846C548.309 199.412 555.508 204.761 561.272 211.892C566.85 219.024 569.732 228.295 569.732 239.884C569.732 251.116 566.671 261.1 560.733 270.015C554.79 278.929 546.33 285.704 535.527 290.696C524.725 295.689 512.483 298.184 498.801 298.184C483.678 298.184 470.355 295.51 458.834 289.983C447.312 284.635 438.31 276.968 431.829 267.34C425.347 257.713 422.107 246.659 421.927 234.179L452.532 234.713ZM603.04 183.544H578.736V157.871H603.04V119.004H632.923V157.692H666.59V183.366H632.923V255.752C632.923 261.1 634.005 265.023 636.164 267.34C638.328 269.658 642.106 270.728 647.326 270.728H669.831V296.58H641.383C628.062 296.58 618.34 293.549 612.218 287.309C606.101 281.247 603.04 271.62 603.04 258.783V183.544ZM818.718 157.871V296.58H792.793L789.552 275.364C784.692 282.317 778.39 287.666 770.647 291.944C762.91 296.045 754.086 298.184 743.826 298.184C731.043 298.184 719.701 295.332 709.62 289.626C699.534 283.922 691.797 275.72 686.034 265.023C680.455 254.325 677.573 241.667 677.573 227.226C677.573 213.141 680.455 200.66 686.213 189.963C691.976 179.265 699.898 170.886 709.8 165.002C719.88 159.119 731.222 156.266 743.646 156.266C754.086 156.266 763.09 158.228 770.647 162.149C778.39 166.072 784.512 171.42 789.194 178.196L792.793 157.871H818.718ZM778.21 260.744C785.774 252.186 789.373 241.31 789.373 227.76C789.373 214.032 785.594 202.8 778.21 194.242C770.647 185.505 760.926 181.227 748.686 181.227C736.442 181.227 726.541 185.505 719.162 194.063C711.599 202.621 708 213.675 708 227.226C708 240.954 711.779 252.186 719.162 260.744C726.72 269.301 736.442 273.581 748.686 273.581C760.926 273.581 770.827 269.301 778.21 260.744ZM955.904 284.456C944.562 293.549 930.158 298.184 912.335 298.184C898.47 298.184 886.231 295.332 875.607 289.449C864.988 283.565 856.887 275.185 851.123 264.31C845.36 253.434 842.484 240.954 842.484 226.869C842.484 212.784 845.36 200.482 851.303 189.785C857.066 179.087 865.347 170.886 876.145 165.002C886.77 159.119 899.194 156.266 913.232 156.266C930.697 156.266 945.1 160.902 956.262 169.994C967.425 179.087 974.265 191.568 977.147 207.257H946.72C944.741 199.234 940.777 192.994 934.66 188.358C928.718 183.723 921.334 181.227 912.515 181.227C900.634 181.227 891.092 185.505 883.888 193.885C876.689 202.443 873.09 213.319 873.09 226.869C873.09 240.597 876.689 251.829 883.888 260.387C891.092 268.945 900.634 273.224 912.515 273.224C921.698 273.224 929.256 270.906 935.199 266.093C941.142 261.279 945.1 254.86 946.9 246.659H976.967C974.265 262.883 967.066 275.364 955.904 284.456ZM1000.73 106.88H1030.26V225.621L1094.35 157.871H1128.55L1076.34 213.675L1131.97 296.58H1096.87L1055.28 235.07L1030.44 261.1V296.58H1000.91V106.88H1000.73ZM1165.64 250.759C1166.18 258.069 1169.6 263.953 1175.9 268.588C1182.2 273.224 1190.3 275.542 1200.39 275.542C1209.39 275.542 1216.59 273.937 1222.17 270.55C1227.75 267.162 1230.45 262.705 1230.45 257.178C1230.45 252.542 1229.19 248.977 1226.67 246.659C1224.15 244.341 1220.73 242.558 1216.41 241.667C1212.09 240.597 1205.43 239.706 1196.6 238.636C1184.36 237.21 1174.28 235.248 1166.36 232.753C1158.44 230.256 1151.96 226.512 1147.28 221.163C1142.42 215.815 1140.07 208.683 1140.07 199.59C1140.07 191.032 1142.42 183.544 1147.28 176.948C1152.14 170.351 1158.8 165.181 1167.26 161.615C1175.72 158.049 1185.44 156.266 1196.06 156.266C1213.71 156.266 1228.11 160.189 1239.09 167.855C1250.07 175.7 1256.02 186.575 1257.1 200.66H1228.29C1227.57 194.42 1224.33 189.072 1218.75 185.149C1213.17 181.048 1205.97 179.087 1197.33 179.087C1188.68 179.087 1181.84 180.692 1176.44 183.901C1171.22 187.11 1168.52 191.568 1168.52 197.094C1168.52 201.195 1169.78 204.404 1172.48 206.366C1175.18 208.505 1178.42 209.931 1182.38 210.644C1186.34 211.536 1192.82 212.427 1201.83 213.497C1213.89 214.745 1223.97 216.706 1232.25 219.381C1240.53 222.055 1247.01 226.156 1251.87 231.861C1256.73 237.566 1259.26 245.232 1259.26 255.039C1259.26 263.775 1256.73 271.263 1251.51 277.859C1246.47 284.456 1239.45 289.449 1230.45 293.014C1221.45 296.58 1211.55 298.363 1200.39 298.363C1181.66 298.363 1166.36 294.084 1154.84 285.704C1143.31 277.325 1137.2 265.736 1136.83 250.938H1165.64V250.759Z" fill="white"/>
<path d="M259.945 243.316L306.145 313.277H271.632L217.397 231.077L163.162 313.277H128.831L175.031 243.499H108.744V217.013H326.232V243.316H259.945Z" fill="white"/>
<path d="M326.232 164.77V191.257V191.44H108.744V164.77H173.753L128.1 95.7234H162.614L217.397 179.019L272.362 95.7234H306.876L261.223 164.77H326.232Z" fill="white"/>
</svg>
